<svg aria-roledescription="flowchart-v2" role="graphics-document document" viewBox="0 0 1491.622802734375 1006" style="max-width: 1491.622802734375px;" class="flowchart" xmlns="http://www.w3.org/2000/svg" width="100%" id="mermaidSvgId"><style>#mermaidSvgId{font-family:"trebuchet ms",verdana,arial,sans-serif;font-size:16px;fill:#0a0f14;}@keyframes edge-animation-frame{from{stroke-dashoffset:0;}}@keyframes dash{to{stroke-dashoffset:0;}}#mermaidSvgId .edge-animation-slow{stroke-dasharray:9,5!important;stroke-dashoffset:900;animation:dash 50s linear infinite;stroke-linecap:round;}#mermaidSvgId .edge-animation-fast{stroke-dasharray:9,5!important;stroke-dashoffset:900;animation:dash 20s linear infinite;stroke-linecap:round;}#mermaidSvgId .error-icon{fill:#ffebee;}#mermaidSvgId .error-text{fill:#c62828;stroke:#c62828;}#mermaidSvgId .edge-thickness-normal{stroke-width:1px;}#mermaidSvgId .edge-thickness-thick{stroke-width:3.5px;}#mermaidSvgId .edge-pattern-solid{stroke-dasharray:0;}#mermaidSvgId .edge-thickness-invisible{stroke-width:0;fill:none;}#mermaidSvgId .edge-pattern-dashed{stroke-dasharray:3;}#mermaidSvgId .edge-pattern-dotted{stroke-dasharray:2;}#mermaidSvgId .marker{fill:#0a0f14;stroke:#0a0f14;}#mermaidSvgId .marker.cross{stroke:#0a0f14;}#mermaidSvgId svg{font-family:"trebuchet ms",verdana,arial,sans-serif;font-size:16px;}#mermaidSvgId p{margin:0;}#mermaidSvgId .label{font-family:"trebuchet ms",verdana,arial,sans-serif;color:#0a0f14;}#mermaidSvgId .cluster-label text{fill:#1e1e1e;}#mermaidSvgId .cluster-label span{color:#1e1e1e;}#mermaidSvgId .cluster-label span p{background-color:transparent;}#mermaidSvgId .label text,#mermaidSvgId span{fill:#0a0f14;color:#0a0f14;}#mermaidSvgId .node rect,#mermaidSvgId .node circle,#mermaidSvgId .node ellipse,#mermaidSvgId .node polygon,#mermaidSvgId .node path{fill:#ffffff;stroke:#1a468b;stroke-width:1px;}#mermaidSvgId .rough-node .label text,#mermaidSvgId .node .label text,#mermaidSvgId .image-shape .label,#mermaidSvgId .icon-shape .label{text-anchor:middle;}#mermaidSvgId .node .katex path{fill:#000;stroke:#000;stroke-width:1px;}#mermaidSvgId .rough-node .label,#mermaidSvgId .node .label,#mermaidSvgId .image-shape .label,#mermaidSvgId .icon-shape .label{text-align:center;}#mermaidSvgId .node.clickable{cursor:pointer;}#mermaidSvgId .root .anchor path{fill:#0a0f14!important;stroke-width:0;stroke:#0a0f14;}#mermaidSvgId .arrowheadPath{fill:#0a0f14;}#mermaidSvgId .edgePath .path{stroke:#0a0f14;stroke-width:2.0px;}#mermaidSvgId .flowchart-link{stroke:#0a0f14;fill:none;}#mermaidSvgId .edgeLabel{background-color:#ffffff;text-align:center;}#mermaidSvgId .edgeLabel p{background-color:#ffffff;}#mermaidSvgId .edgeLabel rect{opacity:0.5;background-color:#ffffff;fill:#ffffff;}#mermaidSvgId .labelBkg{background-color:rgba(255, 255, 255, 0.5);}#mermaidSvgId .cluster rect{fill:transparent;stroke:#3578c2;stroke-width:1px;}#mermaidSvgId .cluster text{fill:#1e1e1e;}#mermaidSvgId .cluster span{color:#1e1e1e;}#mermaidSvgId div.mermaidTooltip{position:absolute;text-align:center;max-width:200px;padding:2px;font-family:"trebuchet ms",verdana,arial,sans-serif;font-size:12px;background:#bbd6f2;border:1px solid #90b3d9;border-radius:2px;pointer-events:none;z-index:100;}#mermaidSvgId .flowchartTitleText{text-anchor:middle;font-size:18px;fill:#0a0f14;}#mermaidSvgId rect.text{fill:none;stroke-width:0;}#mermaidSvgId .icon-shape,#mermaidSvgId .image-shape{background-color:#ffffff;text-align:center;}#mermaidSvgId .icon-shape p,#mermaidSvgId .image-shape p{background-color:#ffffff;padding:2px;}#mermaidSvgId .icon-shape rect,#mermaidSvgId .image-shape rect{opacity:0.5;background-color:#ffffff;fill:#ffffff;}#mermaidSvgId :root{--mermaid-font-family:"trebuchet ms",verdana,arial,sans-serif;}</style><g><marker orient="auto" markerHeight="8" markerWidth="8" markerUnits="userSpaceOnUse" refY="5" refX="5" viewBox="0 0 10 10" class="marker flowchart-v2" id="mermaidSvgId_flowchart-v2-pointEnd"><path style="stroke-width: 1; stroke-dasharray: 1, 0;" class="arrowMarkerPath" d="M 0 0 L 10 5 L 0 10 z"></path></marker><marker orient="auto" markerHeight="8" markerWidth="8" markerUnits="userSpaceOnUse" refY="5" refX="4.5" viewBox="0 0 10 10" class="marker flowchart-v2" id="mermaidSvgId_flowchart-v2-pointStart"><path style="stroke-width: 1; stroke-dasharray: 1, 0;" class="arrowMarkerPath" d="M 0 5 L 10 10 L 10 0 z"></path></marker><marker orient="auto" markerHeight="11" markerWidth="11" markerUnits="userSpaceOnUse" refY="5" refX="11" viewBox="0 0 10 10" class="marker flowchart-v2" id="mermaidSvgId_flowchart-v2-circleEnd"><circle style="stroke-width: 1; stroke-dasharray: 1, 0;" class="arrowMarkerPath" r="5" cy="5" cx="5"></circle></marker><marker orient="auto" markerHeight="11" markerWidth="11" markerUnits="userSpaceOnUse" refY="5" refX="-1" viewBox="0 0 10 10" class="marker flowchart-v2" id="mermaidSvgId_flowchart-v2-circleStart"><circle style="stroke-width: 1; stroke-dasharray: 1, 0;" class="arrowMarkerPath" r="5" cy="5" cx="5"></circle></marker><marker orient="auto" markerHeight="11" markerWidth="11" markerUnits="userSpaceOnUse" refY="5.2" refX="12" viewBox="0 0 11 11" class="marker cross flowchart-v2" id="mermaidSvgId_flowchart-v2-crossEnd"><path style="stroke-width: 2; stroke-dasharray: 1, 0;" class="arrowMarkerPath" d="M 1,1 l 9,9 M 10,1 l -9,9"></path></marker><marker orient="auto" markerHeight="11" markerWidth="11" markerUnits="userSpaceOnUse" refY="5.2" refX="-1" viewBox="0 0 11 11" class="marker cross flowchart-v2" id="mermaidSvgId_flowchart-v2-crossStart"><path style="stroke-width: 2; stroke-dasharray: 1, 0;" class="arrowMarkerPath" d="M 1,1 l 9,9 M 10,1 l -9,9"></path></marker><g class="root"><g class="clusters"><g data-look="classic" id="subGraph4" class="cluster"><rect height="98.75" width="1458.2955894470215" y="899.25" x="20.27050018310547" style=""></rect><g transform="translate(687.5413684844971, 899.25)" class="cluster-label"><g><rect style="stroke: none" class="background"></rect><text style="" y="-10.1"><tspan dy="1.1em" y="-0.1em" x="0" class="text-outer-tspan"><tspan font-weight="normal" class="text-inner-tspan" font-style="normal">External</tspan><tspan font-weight="normal" class="text-inner-tspan" font-style="normal"> Services</tspan></tspan></text></g></g></g><g data-look="classic" id="subGraph3" class="cluster"><rect height="222.5" width="468.14734649658203" y="626.75" x="8" style=""></rect><g transform="translate(177.41743850708008, 626.75)" class="cluster-label"><g><rect style="stroke: none" class="background"></rect><text style="" y="-10.1"><tspan dy="1.1em" y="-0.1em" x="0" class="text-outer-tspan"><tspan font-weight="normal" class="text-inner-tspan" font-style="normal">Data</tspan><tspan font-weight="normal" class="text-inner-tspan" font-style="normal"> Access</tspan><tspan font-weight="normal" class="text-inner-tspan" font-style="normal"> Layer</tspan></tspan></text></g></g></g><g data-look="classic" id="subGraph2" class="cluster"><rect height="222.5" width="987.4753913879395" y="503" x="496.14734649658203" style=""></rect><g transform="translate(938.8303737640381, 503)" class="cluster-label"><g><rect style="stroke: none" class="background"></rect><text style="" y="-10.1"><tspan dy="1.1em" y="-0.1em" x="0" class="text-outer-tspan"><tspan font-weight="normal" class="text-inner-tspan" font-style="normal">Business</tspan><tspan font-weight="normal" class="text-inner-tspan" font-style="normal"> Logic</tspan></tspan></text></g></g></g><g data-look="classic" id="subGraph1" class="cluster"><rect height="197.5" width="679.4529876708984" y="255.5" x="643.3533744812012" style=""></rect><g transform="translate(915.952953338623, 255.5)" class="cluster-label"><g><rect style="stroke: none" class="background"></rect><text style="" y="-10.1"><tspan dy="1.1em" y="-0.1em" x="0" class="text-outer-tspan"><tspan font-weight="normal" class="text-inner-tspan" font-style="normal">State</tspan><tspan font-weight="normal" class="text-inner-tspan" font-style="normal"> Management</tspan></tspan></text></g></g></g><g data-look="classic" id="subGraph0" class="cluster"><rect height="197.5" width="736.0965728759766" y="8" x="612.4119453430176" style=""></rect><g transform="translate(912.7082939147949, 8)" class="cluster-label"><g><rect style="stroke: none" class="background"></rect><text style="" y="-10.1"><tspan dy="1.1em" y="-0.1em" x="0" class="text-outer-tspan"><tspan font-weight="normal" class="text-inner-tspan" font-style="normal">Presentation</tspan><tspan font-weight="normal" class="text-inner-tspan" font-style="normal"> Layer</tspan></tspan></text></g></g></g></g><g class="edgePaths"><path marker-end="url(#mermaidSvgId_flowchart-v2-pointEnd)" style="" class="edge-thickness-normal edge-pattern-solid edge-thickness-normal edge-pattern-solid flowchart-link" id="L_A_E_0" d="M1000.077,180.5L1000.077,184.667C1000.077,188.833,1000.077,197.167,1000.077,205.5C1000.077,213.833,1000.077,222.167,1000.077,230.5C1000.077,238.833,1000.077,247.167,1000.077,254.833C1000.077,262.5,1000.077,269.5,1000.077,273L1000.077,276.5"></path><path marker-end="url(#mermaidSvgId_flowchart-v2-pointEnd)" style="" class="edge-thickness-normal edge-pattern-solid edge-thickness-normal edge-pattern-solid flowchart-link" id="L_B_A_0" d="M743.115,81.75L743.115,85.917C743.115,90.083,743.115,98.417,764.887,106.767C786.658,115.117,830.201,123.484,851.973,127.667L873.745,131.85"></path><path marker-end="url(#mermaidSvgId_flowchart-v2-pointEnd)" style="" class="edge-thickness-normal edge-pattern-solid edge-thickness-normal edge-pattern-solid flowchart-link" id="L_C_A_0" d="M973.146,81.75L973.146,85.917C973.146,90.083,973.146,98.417,975.1,106.165C977.053,113.913,980.96,121.076,982.913,124.657L984.867,128.238"></path><path marker-end="url(#mermaidSvgId_flowchart-v2-pointEnd)" style="" class="edge-thickness-normal edge-pattern-solid edge-thickness-normal edge-pattern-solid flowchart-link" id="L_D_A_0" d="M1204.029,81.75L1204.029,85.917C1204.029,90.083,1204.029,98.417,1187.466,106.593C1170.903,114.77,1137.776,122.789,1121.213,126.799L1104.65,130.809"></path><path marker-end="url(#mermaidSvgId_flowchart-v2-pointEnd)" style="" class="edge-thickness-normal edge-pattern-solid edge-thickness-normal edge-pattern-solid flowchart-link" id="L_E_F_0" d="M928.534,319.394L899.907,325.203C871.28,331.012,814.026,342.631,785.398,351.941C756.771,361.25,756.771,368.25,756.771,371.75L756.771,375.25"></path><path marker-end="url(#mermaidSvgId_flowchart-v2-pointEnd)" style="" class="edge-thickness-normal edge-pattern-solid edge-thickness-normal edge-pattern-solid flowchart-link" id="L_E_G_0" d="M987.911,329.25L985.832,333.417C983.752,337.583,979.593,345.917,977.513,353.583C975.433,361.25,975.433,368.25,975.433,371.75L975.433,375.25"></path><path marker-end="url(#mermaidSvgId_flowchart-v2-pointEnd)" style="" class="edge-thickness-normal edge-pattern-solid edge-thickness-normal edge-pattern-solid flowchart-link" id="L_E_H_0" d="M1071.62,322.391L1093.307,327.701C1114.994,333.011,1158.368,343.63,1180.055,352.44C1201.742,361.25,1201.742,368.25,1201.742,371.75L1201.742,375.25"></path><path marker-end="url(#mermaidSvgId_flowchart-v2-pointEnd)" style="" class="edge-thickness-normal edge-pattern-solid edge-thickness-normal edge-pattern-solid flowchart-link" id="L_F_I_0" d="M756.771,428L756.771,432.167C756.771,436.333,756.771,444.667,756.771,453C756.771,461.333,756.771,469.667,756.771,478C756.771,486.333,756.771,494.667,767.746,502.775C778.72,510.883,800.669,518.765,811.644,522.707L822.619,526.648"></path><path marker-end="url(#mermaidSvgId_flowchart-v2-pointEnd)" style="" class="edge-thickness-normal edge-pattern-solid edge-thickness-normal edge-pattern-solid flowchart-link" id="L_G_I_0" d="M975.433,428L975.433,432.167C975.433,436.333,975.433,444.667,975.433,453C975.433,461.333,975.433,469.667,975.433,478C975.433,486.333,975.433,494.667,969.152,502.654C962.872,510.64,950.31,518.281,944.029,522.101L937.748,525.921"></path><path marker-end="url(#mermaidSvgId_flowchart-v2-pointEnd)" style="" class="edge-thickness-normal edge-pattern-solid edge-thickness-normal edge-pattern-solid flowchart-link" id="L_H_I_0" d="M1201.742,428L1201.742,432.167C1201.742,436.333,1201.742,444.667,1201.742,453C1201.742,461.333,1201.742,469.667,1201.742,478C1201.742,486.333,1201.742,494.667,1164.786,504.767C1127.831,514.868,1053.92,526.737,1016.964,532.671L980.009,538.605"></path><path marker-end="url(#mermaidSvgId_flowchart-v2-pointEnd)" style="" class="edge-thickness-normal edge-pattern-solid edge-thickness-normal edge-pattern-solid flowchart-link" id="L_I_J_0" d="M812.45,571.293L790.499,576.369C768.548,581.445,724.646,591.598,702.695,600.84C680.744,610.083,680.744,618.417,680.744,626.083C680.744,633.75,680.744,640.75,680.744,644.25L680.744,647.75"></path><path marker-end="url(#mermaidSvgId_flowchart-v2-pointEnd)" style="" class="edge-thickness-normal edge-pattern-solid edge-thickness-normal edge-pattern-solid flowchart-link" id="L_I_K_0" d="M893.948,576.75L893.895,580.917C893.843,585.083,893.738,593.417,893.685,601.75C893.633,610.083,893.633,618.417,893.633,626.083C893.633,633.75,893.633,640.75,893.633,644.25L893.633,647.75"></path><path marker-end="url(#mermaidSvgId_flowchart-v2-pointEnd)" style="" class="edge-thickness-normal edge-pattern-solid edge-thickness-normal edge-pattern-solid flowchart-link" id="L_I_L_0" d="M976.059,570.742L999.077,575.91C1022.095,581.078,1068.132,591.414,1091.15,600.749C1114.168,610.083,1114.168,618.417,1114.168,626.083C1114.168,633.75,1114.168,640.75,1114.168,644.25L1114.168,647.75"></path><path marker-end="url(#mermaidSvgId_flowchart-v2-pointEnd)" style="" class="edge-thickness-normal edge-pattern-solid edge-thickness-normal edge-pattern-solid flowchart-link" id="L_I_M_0" d="M976.059,561.277L1038.047,568.023C1100.034,574.768,1224.009,588.259,1285.997,599.171C1347.984,610.083,1347.984,618.417,1347.984,626.083C1347.984,633.75,1347.984,640.75,1347.984,644.25L1347.984,647.75"></path><path marker-end="url(#mermaidSvgId_flowchart-v2-pointEnd)" style="" class="edge-thickness-normal edge-pattern-solid edge-thickness-normal edge-pattern-solid flowchart-link" id="L_J_N_0" d="M680.744,700.5L680.744,704.667C680.744,708.833,680.744,717.167,627.308,725.5C573.872,733.833,467.001,742.167,414.613,749.861C362.225,757.555,364.32,764.61,365.368,768.138L366.416,771.666"></path><path marker-end="url(#mermaidSvgId_flowchart-v2-pointEnd)" style="" class="edge-thickness-normal edge-pattern-solid edge-thickness-normal edge-pattern-solid flowchart-link" id="L_K_N_0" d="M893.633,700.5L893.633,704.667C893.633,708.833,893.633,717.167,808.049,725.5C722.465,733.833,551.297,742.167,465.334,749.837C379.372,757.508,378.615,764.515,378.237,768.019L377.858,771.523"></path><path marker-end="url(#mermaidSvgId_flowchart-v2-pointEnd)" style="" class="edge-thickness-normal edge-pattern-solid edge-thickness-normal edge-pattern-solid flowchart-link" id="L_L_N_0" d="M1114.168,700.5L1114.168,704.667C1114.168,708.833,1114.168,717.167,1004.498,725.5C894.828,733.833,675.487,742.167,559.522,750.154C443.557,758.142,430.967,765.783,424.671,769.604L418.376,773.425"></path><path marker-end="url(#mermaidSvgId_flowchart-v2-pointEnd)" style="" class="edge-thickness-normal edge-pattern-solid edge-thickness-normal edge-pattern-solid flowchart-link" id="L_M_S_0" d="M1347.984,700.5L1347.984,704.667C1347.984,708.833,1347.984,717.167,1347.984,725.5C1347.984,733.833,1347.984,742.167,1347.984,754.563C1347.984,766.958,1347.984,783.417,1347.984,799.875C1347.984,816.333,1347.984,832.792,1347.984,845.188C1347.984,857.583,1347.984,865.917,1347.984,874.25C1347.984,882.583,1347.984,890.917,1347.984,898.583C1347.984,906.25,1347.984,913.25,1347.984,916.75L1347.984,920.25"></path><path marker-end="url(#mermaidSvgId_flowchart-v2-pointEnd)" style="" class="edge-thickness-normal edge-pattern-solid edge-thickness-normal edge-pattern-solid flowchart-link" id="L_N_R_0" d="M374.796,824.25L374.796,828.417C374.796,832.583,374.796,840.917,374.796,849.25C374.796,857.583,374.796,865.917,374.796,874.25C374.796,882.583,374.796,890.917,374.796,898.583C374.796,906.25,374.796,913.25,374.796,916.75L374.796,920.25"></path><path marker-end="url(#mermaidSvgId_flowchart-v2-pointEnd)" style="" class="edge-thickness-normal edge-pattern-solid edge-thickness-normal edge-pattern-solid flowchart-link" id="L_O_T_0" d="M133.145,824.25L133.145,828.417C133.145,832.583,133.145,840.917,133.145,849.25C133.145,857.583,133.145,865.917,133.145,874.25C133.145,882.583,133.145,890.917,133.145,898.583C133.145,906.25,133.145,913.25,133.145,916.75L133.145,920.25"></path><path marker-end="url(#mermaidSvgId_flowchart-v2-pointEnd)" style="" class="edge-thickness-normal edge-pattern-solid edge-thickness-normal edge-pattern-solid flowchart-link" id="L_P_O_0" d="M128.478,700.5L128.478,704.667C128.478,708.833,128.478,717.167,128.478,725.5C128.478,733.833,128.478,742.167,128.81,749.836C129.141,757.506,129.803,764.512,130.134,768.015L130.465,771.518"></path><path marker-end="url(#mermaidSvgId_flowchart-v2-pointEnd)" style="" class="edge-thickness-normal edge-pattern-solid edge-thickness-normal edge-pattern-solid flowchart-link" id="L_Q_O_0" d="M340.129,700.5L340.129,704.667C340.129,708.833,340.129,717.167,340.129,725.5C340.129,733.833,340.129,742.167,319.329,751.295C298.529,760.423,256.929,770.347,236.129,775.309L215.329,780.27"></path></g><g class="edgeLabels"><g><rect style="stroke: none" class="background"></rect></g><g><rect style="stroke: none" class="background"></rect></g><g><rect style="stroke: none" class="background"></rect></g><g><rect style="stroke: none" class="background"></rect></g><g><rect style="stroke: none" class="background"></rect></g><g><rect style="stroke: none" class="background"></rect></g><g><rect style="stroke: none" class="background"></rect></g><g><rect style="stroke: none" class="background"></rect></g><g><rect style="stroke: none" class="background"></rect></g><g><rect style="stroke: none" class="background"></rect></g><g><rect style="stroke: none" class="background"></rect></g><g><rect style="stroke: none" class="background"></rect></g><g><rect style="stroke: none" class="background"></rect></g><g><rect style="stroke: none" class="background"></rect></g><g><rect style="stroke: none" class="background"></rect></g><g><rect style="stroke: none" class="background"></rect></g><g><rect style="stroke: none" class="background"></rect></g><g><rect style="stroke: none" class="background"></rect></g><g><rect style="stroke: none" class="background"></rect></g><g><rect style="stroke: none" class="background"></rect></g><g><rect style="stroke: none" class="background"></rect></g><g><rect style="stroke: none" class="background"></rect></g><g class="edgeLabel"><g transform="translate(0, 0)" class="label"><text y="-10.1"><tspan dy="1.1em" y="-0.1em" x="0" class="text-outer-tspan"></tspan></text></g></g><g class="edgeLabel"><g transform="translate(0, 0)" class="label"><text y="-10.1"><tspan dy="1.1em" y="-0.1em" x="0" class="text-outer-tspan"></tspan></text></g></g><g class="edgeLabel"><g transform="translate(0, 0)" class="label"><text y="-10.1"><tspan dy="1.1em" y="-0.1em" x="0" class="text-outer-tspan"></tspan></text></g></g><g class="edgeLabel"><g transform="translate(0, 0)" class="label"><text y="-10.1"><tspan dy="1.1em" y="-0.1em" x="0" class="text-outer-tspan"></tspan></text></g></g><g class="edgeLabel"><g transform="translate(0, 0)" class="label"><text y="-10.1"><tspan dy="1.1em" y="-0.1em" x="0" class="text-outer-tspan"></tspan></text></g></g><g class="edgeLabel"><g transform="translate(0, 0)" class="label"><text y="-10.1"><tspan dy="1.1em" y="-0.1em" x="0" class="text-outer-tspan"></tspan></text></g></g><g class="edgeLabel"><g transform="translate(0, 0)" class="label"><text y="-10.1"><tspan dy="1.1em" y="-0.1em" x="0" class="text-outer-tspan"></tspan></text></g></g><g class="edgeLabel"><g transform="translate(0, 0)" class="label"><text y="-10.1"><tspan dy="1.1em" y="-0.1em" x="0" class="text-outer-tspan"></tspan></text></g></g><g class="edgeLabel"><g transform="translate(0, 0)" class="label"><text y="-10.1"><tspan dy="1.1em" y="-0.1em" x="0" class="text-outer-tspan"></tspan></text></g></g><g class="edgeLabel"><g transform="translate(0, 0)" class="label"><text y="-10.1"><tspan dy="1.1em" y="-0.1em" x="0" class="text-outer-tspan"></tspan></text></g></g><g class="edgeLabel"><g transform="translate(0, 0)" class="label"><text y="-10.1"><tspan dy="1.1em" y="-0.1em" x="0" class="text-outer-tspan"></tspan></text></g></g><g class="edgeLabel"><g transform="translate(0, 0)" class="label"><text y="-10.1"><tspan dy="1.1em" y="-0.1em" x="0" class="text-outer-tspan"></tspan></text></g></g><g class="edgeLabel"><g transform="translate(0, 0)" class="label"><text y="-10.1"><tspan dy="1.1em" y="-0.1em" x="0" class="text-outer-tspan"></tspan></text></g></g><g class="edgeLabel"><g transform="translate(0, 0)" class="label"><text y="-10.1"><tspan dy="1.1em" y="-0.1em" x="0" class="text-outer-tspan"></tspan></text></g></g><g class="edgeLabel"><g transform="translate(0, 0)" class="label"><text y="-10.1"><tspan dy="1.1em" y="-0.1em" x="0" class="text-outer-tspan"></tspan></text></g></g><g class="edgeLabel"><g transform="translate(0, 0)" class="label"><text y="-10.1"><tspan dy="1.1em" y="-0.1em" x="0" class="text-outer-tspan"></tspan></text></g></g><g class="edgeLabel"><g transform="translate(0, 0)" class="label"><text y="-10.1"><tspan dy="1.1em" y="-0.1em" x="0" class="text-outer-tspan"></tspan></text></g></g><g class="edgeLabel"><g transform="translate(0, 0)" class="label"><text y="-10.1"><tspan dy="1.1em" y="-0.1em" x="0" class="text-outer-tspan"></tspan></text></g></g><g class="edgeLabel"><g transform="translate(0, 0)" class="label"><text y="-10.1"><tspan dy="1.1em" y="-0.1em" x="0" class="text-outer-tspan"></tspan></text></g></g><g class="edgeLabel"><g transform="translate(0, 0)" class="label"><text y="-10.1"><tspan dy="1.1em" y="-0.1em" x="0" class="text-outer-tspan"></tspan></text></g></g><g class="edgeLabel"><g transform="translate(0, 0)" class="label"><text y="-10.1"><tspan dy="1.1em" y="-0.1em" x="0" class="text-outer-tspan"></tspan></text></g></g><g class="edgeLabel"><g transform="translate(0, 0)" class="label"><text y="-10.1"><tspan dy="1.1em" y="-0.1em" x="0" class="text-outer-tspan"></tspan></text></g></g></g><g class="nodes"><g transform="translate(1000.0769309997559, 156.125)" id="flowchart-A-0" class="node default"><rect height="48.75" width="244.8085479736328" y="-24.375" x="-122.4042739868164" style="" class="basic label-container"></rect><g transform="translate(0, -9.375)" style="" class="label"><rect></rect><g><rect style="stroke: none" class="background"></rect><text style="" y="-10.1"><tspan dy="1.1em" y="-0.1em" x="0" class="text-outer-tspan"><tspan font-weight="normal" class="text-inner-tspan" font-style="normal">React</tspan><tspan font-weight="normal" class="text-inner-tspan" font-style="normal"> Native</tspan><tspan font-weight="normal" class="text-inner-tspan" font-style="normal"> Components</tspan></tspan></text></g></g></g><g transform="translate(743.115062713623, 57.375)" id="flowchart-B-1" class="node default"><rect height="48.75" width="191.40623474121094" y="-24.375" x="-95.70311737060547" style="" class="basic label-container"></rect><g transform="translate(0, -9.375)" style="" class="label"><rect></rect><g><rect style="stroke: none" class="background"></rect><text style="" y="-10.1"><tspan dy="1.1em" y="-0.1em" x="0" class="text-outer-tspan"><tspan font-weight="normal" class="text-inner-tspan" font-style="normal">Navigation</tspan><tspan font-weight="normal" class="text-inner-tspan" font-style="normal"> System</tspan></tspan></text></g></g></g><g transform="translate(973.1462745666504, 57.375)" id="flowchart-C-2" class="node default"><rect height="48.75" width="168.65619659423828" y="-24.375" x="-84.32809829711914" style="" class="basic label-container"></rect><g transform="translate(0, -9.375)" style="" class="label"><rect></rect><g><rect style="stroke: none" class="background"></rect><text style="" y="-10.1"><tspan dy="1.1em" y="-0.1em" x="0" class="text-outer-tspan"><tspan font-weight="normal" class="text-inner-tspan" font-style="normal">UI</tspan><tspan font-weight="normal" class="text-inner-tspan" font-style="normal"> Components</tspan></tspan></text></g></g></g><g transform="translate(1204.0290412902832, 57.375)" id="flowchart-D-3" class="node default"><rect height="48.75" width="193.1093292236328" y="-24.375" x="-96.5546646118164" style="" class="basic label-container"></rect><g transform="translate(0, -9.375)" style="" class="label"><rect></rect><g><rect style="stroke: none" class="background"></rect><text style="" y="-10.1"><tspan dy="1.1em" y="-0.1em" x="0" class="text-outer-tspan"><tspan font-weight="normal" class="text-inner-tspan" font-style="normal">Chart</tspan><tspan font-weight="normal" class="text-inner-tspan" font-style="normal"> Components</tspan></tspan></text></g></g></g><g transform="translate(1000.0769309997559, 304.875)" id="flowchart-E-4" class="node default"><rect height="48.75" width="143.0859375" y="-24.375" x="-71.54296875" style="" class="basic label-container"></rect><g transform="translate(0, -9.375)" style="" class="label"><rect></rect><g><rect style="stroke: none" class="background"></rect><text style="" y="-10.1"><tspan dy="1.1em" y="-0.1em" x="0" class="text-outer-tspan"><tspan font-weight="normal" class="text-inner-tspan" font-style="normal">Context</tspan><tspan font-weight="normal" class="text-inner-tspan" font-style="normal"> API</tspan></tspan></text></g></g></g><g transform="translate(756.7713203430176, 403.625)" id="flowchart-F-5" class="node default"><rect height="48.75" width="156.83589935302734" y="-24.375" x="-78.41794967651367" style="" class="basic label-container"></rect><g transform="translate(0, -9.375)" style="" class="label"><rect></rect><g><rect style="stroke: none" class="background"></rect><text style="" y="-10.1"><tspan dy="1.1em" y="-0.1em" x="0" class="text-outer-tspan"><tspan font-weight="normal" class="text-inner-tspan" font-style="normal">Auth</tspan><tspan font-weight="normal" class="text-inner-tspan" font-style="normal"> Context</tspan></tspan></text></g></g></g><g transform="translate(975.4333839416504, 403.625)" id="flowchart-G-6" class="node default"><rect height="48.75" width="180.48824310302734" y="-24.375" x="-90.24412155151367" style="" class="basic label-container"></rect><g transform="translate(0, -9.375)" style="" class="label"><rect></rect><g><rect style="stroke: none" class="background"></rect><text style="" y="-10.1"><tspan dy="1.1em" y="-0.1em" x="0" class="text-outer-tspan"><tspan font-weight="normal" class="text-inner-tspan" font-style="normal">Expense</tspan><tspan font-weight="normal" class="text-inner-tspan" font-style="normal"> Context</tspan></tspan></text></g></g></g><g transform="translate(1201.7419319152832, 403.625)" id="flowchart-H-7" class="node default"><rect height="48.75" width="172.12886810302734" y="-24.375" x="-86.06443405151367" style="" class="basic label-container"></rect><g transform="translate(0, -9.375)" style="" class="label"><rect></rect><g><rect style="stroke: none" class="background"></rect><text style="" y="-10.1"><tspan dy="1.1em" y="-0.1em" x="0" class="text-outer-tspan"><tspan font-weight="normal" class="text-inner-tspan" font-style="normal">Budget</tspan><tspan font-weight="normal" class="text-inner-tspan" font-style="normal"> Context</tspan></tspan></text></g></g></g><g transform="translate(894.2546844482422, 552.375)" id="flowchart-I-8" class="node default"><rect height="48.75" width="163.6093521118164" y="-24.375" x="-81.8046760559082" style="" class="basic label-container"></rect><g transform="translate(0, -9.375)" style="" class="label"><rect></rect><g><rect style="stroke: none" class="background"></rect><text style="" y="-10.1"><tspan dy="1.1em" y="-0.1em" x="0" class="text-outer-tspan"><tspan font-weight="normal" class="text-inner-tspan" font-style="normal">Services</tspan><tspan font-weight="normal" class="text-inner-tspan" font-style="normal"> Layer</tspan></tspan></text></g></g></g><g transform="translate(680.7439918518066, 676.125)" id="flowchart-J-9" class="node default"><rect height="48.75" width="151.0624542236328" y="-24.375" x="-75.5312271118164" style="" class="basic label-container"></rect><g transform="translate(0, -9.375)" style="" class="label"><rect></rect><g><rect style="stroke: none" class="background"></rect><text style="" y="-10.1"><tspan dy="1.1em" y="-0.1em" x="0" class="text-outer-tspan"><tspan font-weight="normal" class="text-inner-tspan" font-style="normal">Auth</tspan><tspan font-weight="normal" class="text-inner-tspan" font-style="normal"> Service</tspan></tspan></text></g></g></g><g transform="translate(893.6326179504395, 676.125)" id="flowchart-K-10" class="node default"><rect height="48.75" width="174.7147979736328" y="-24.375" x="-87.3573989868164" style="" class="basic label-container"></rect><g transform="translate(0, -9.375)" style="" class="label"><rect></rect><g><rect style="stroke: none" class="background"></rect><text style="" y="-10.1"><tspan dy="1.1em" y="-0.1em" x="0" class="text-outer-tspan"><tspan font-weight="normal" class="text-inner-tspan" font-style="normal">Expense</tspan><tspan font-weight="normal" class="text-inner-tspan" font-style="normal"> Service</tspan></tspan></text></g></g></g><g transform="translate(1114.1677284240723, 676.125)" id="flowchart-L-11" class="node default"><rect height="48.75" width="166.3554229736328" y="-24.375" x="-83.1777114868164" style="" class="basic label-container"></rect><g transform="translate(0, -9.375)" style="" class="label"><rect></rect><g><rect style="stroke: none" class="background"></rect><text style="" y="-10.1"><tspan dy="1.1em" y="-0.1em" x="0" class="text-outer-tspan"><tspan font-weight="normal" class="text-inner-tspan" font-style="normal">Budget</tspan><tspan font-weight="normal" class="text-inner-tspan" font-style="normal"> Service</tspan></tspan></text></g></g></g><g transform="translate(1347.984088897705, 676.125)" id="flowchart-M-12" class="node default"><rect height="48.75" width="201.2772979736328" y="-24.375" x="-100.6386489868164" style="" class="basic label-container"></rect><g transform="translate(0, -9.375)" style="" class="label"><rect></rect><g><rect style="stroke: none" class="background"></rect><text style="" y="-10.1"><tspan dy="1.1em" y="-0.1em" x="0" class="text-outer-tspan"><tspan font-weight="normal" class="text-inner-tspan" font-style="normal">Notification</tspan><tspan font-weight="normal" class="text-inner-tspan" font-style="normal"> Service</tspan></tspan></text></g></g></g><g transform="translate(374.7957992553711, 799.875)" id="flowchart-N-13" class="node default"><rect height="48.75" width="132.70309448242188" y="-24.375" x="-66.35154724121094" style="" class="basic label-container"></rect><g transform="translate(0, -9.375)" style="" class="label"><rect></rect><g><rect style="stroke: none" class="background"></rect><text style="" y="-10.1"><tspan dy="1.1em" y="-0.1em" x="0" class="text-outer-tspan"><tspan font-weight="normal" class="text-inner-tspan" font-style="normal">API</tspan><tspan font-weight="normal" class="text-inner-tspan" font-style="normal"> Client</tspan></tspan></text></g></g></g><g transform="translate(133.14545440673828, 799.875)" id="flowchart-O-14" class="node default"><rect height="48.75" width="156.58588409423828" y="-24.375" x="-78.29294204711914" style="" class="basic label-container"></rect><g transform="translate(0, -9.375)" style="" class="label"><rect></rect><g><rect style="stroke: none" class="background"></rect><text style="" y="-10.1"><tspan dy="1.1em" y="-0.1em" x="0" class="text-outer-tspan"><tspan font-weight="normal" class="text-inner-tspan" font-style="normal">Local</tspan><tspan font-weight="normal" class="text-inner-tspan" font-style="normal"> Storage</tspan></tspan></text></g></g></g><g transform="translate(128.4784927368164, 676.125)" id="flowchart-P-15" class="node default"><rect height="48.75" width="170.95699310302734" y="-24.375" x="-85.47849655151367" style="" class="basic label-container"></rect><g transform="translate(0, -9.375)" style="" class="label"><rect></rect><g><rect style="stroke: none" class="background"></rect><text style="" y="-10.1"><tspan dy="1.1em" y="-0.1em" x="0" class="text-outer-tspan"><tspan font-weight="normal" class="text-inner-tspan" font-style="normal">Validation</tspan><tspan font-weight="normal" class="text-inner-tspan" font-style="normal"> Utils</tspan></tspan></text></g></g></g><g transform="translate(340.1288375854492, 676.125)" id="flowchart-Q-16" class="node default"><rect height="48.75" width="152.34371185302734" y="-24.375" x="-76.17185592651367" style="" class="basic label-container"></rect><g transform="translate(0, -9.375)" style="" class="label"><rect></rect><g><rect style="stroke: none" class="background"></rect><text style="" y="-10.1"><tspan dy="1.1em" y="-0.1em" x="0" class="text-outer-tspan"><tspan font-weight="normal" class="text-inner-tspan" font-style="normal">Storage</tspan><tspan font-weight="normal" class="text-inner-tspan" font-style="normal"> Utils</tspan></tspan></text></g></g></g><g transform="translate(374.7957992553711, 948.625)" id="flowchart-R-17" class="node default"><rect height="48.75" width="139.1796112060547" y="-24.375" x="-69.58980560302734" style="" class="basic label-container"></rect><g transform="translate(0, -9.375)" style="" class="label"><rect></rect><g><rect style="stroke: none" class="background"></rect><text style="" y="-10.1"><tspan dy="1.1em" y="-0.1em" x="0" class="text-outer-tspan"><tspan font-weight="normal" class="text-inner-tspan" font-style="normal">MockAPI.io</tspan></tspan></text></g></g></g><g transform="translate(1347.984088897705, 948.625)" id="flowchart-S-18" class="node default"><rect height="48.75" width="191.1639862060547" y="-24.375" x="-95.58199310302734" style="" class="basic label-container"></rect><g transform="translate(0, -9.375)" style="" class="label"><rect></rect><g><rect style="stroke: none" class="background"></rect><text style="" y="-10.1"><tspan dy="1.1em" y="-0.1em" x="0" class="text-outer-tspan"><tspan font-weight="normal" class="text-inner-tspan" font-style="normal">Expo</tspan><tspan font-weight="normal" class="text-inner-tspan" font-style="normal"> Notifications</tspan></tspan></text></g></g></g><g transform="translate(133.14545440673828, 948.625)" id="flowchart-T-19" class="node default"><rect height="48.75" width="155.74990844726562" y="-24.375" x="-77.87495422363281" style="" class="basic label-container"></rect><g transform="translate(0, -9.375)" style="" class="label"><rect></rect><g><rect style="stroke: none" class="background"></rect><text style="" y="-10.1"><tspan dy="1.1em" y="-0.1em" x="0" class="text-outer-tspan"><tspan font-weight="normal" class="text-inner-tspan" font-style="normal">AsyncStorage</tspan></tspan></text></g></g></g></g></g></g></svg>