<svg aria-roledescription="flowchart-v2" role="graphics-document document" viewBox="0 0 1977.60498046875 461" style="max-width: 1977.60498046875px;" class="flowchart" xmlns="http://www.w3.org/2000/svg" width="100%" id="mermaidSvgId"><style>#mermaidSvgId{font-family:"trebuchet ms",verdana,arial,sans-serif;font-size:16px;fill:#0a0f14;}@keyframes edge-animation-frame{from{stroke-dashoffset:0;}}@keyframes dash{to{stroke-dashoffset:0;}}#mermaidSvgId .edge-animation-slow{stroke-dasharray:9,5!important;stroke-dashoffset:900;animation:dash 50s linear infinite;stroke-linecap:round;}#mermaidSvgId .edge-animation-fast{stroke-dasharray:9,5!important;stroke-dashoffset:900;animation:dash 20s linear infinite;stroke-linecap:round;}#mermaidSvgId .error-icon{fill:#ffebee;}#mermaidSvgId .error-text{fill:#c62828;stroke:#c62828;}#mermaidSvgId .edge-thickness-normal{stroke-width:1px;}#mermaidSvgId .edge-thickness-thick{stroke-width:3.5px;}#mermaidSvgId .edge-pattern-solid{stroke-dasharray:0;}#mermaidSvgId .edge-thickness-invisible{stroke-width:0;fill:none;}#mermaidSvgId .edge-pattern-dashed{stroke-dasharray:3;}#mermaidSvgId .edge-pattern-dotted{stroke-dasharray:2;}#mermaidSvgId .marker{fill:#0a0f14;stroke:#0a0f14;}#mermaidSvgId .marker.cross{stroke:#0a0f14;}#mermaidSvgId svg{font-family:"trebuchet ms",verdana,arial,sans-serif;font-size:16px;}#mermaidSvgId p{margin:0;}#mermaidSvgId .label{font-family:"trebuchet ms",verdana,arial,sans-serif;color:#0a0f14;}#mermaidSvgId .cluster-label text{fill:#1e1e1e;}#mermaidSvgId .cluster-label span{color:#1e1e1e;}#mermaidSvgId .cluster-label span p{background-color:transparent;}#mermaidSvgId .label text,#mermaidSvgId span{fill:#0a0f14;color:#0a0f14;}#mermaidSvgId .node rect,#mermaidSvgId .node circle,#mermaidSvgId .node ellipse,#mermaidSvgId .node polygon,#mermaidSvgId .node path{fill:#ffffff;stroke:#1a468b;stroke-width:1px;}#mermaidSvgId .rough-node .label text,#mermaidSvgId .node .label text,#mermaidSvgId .image-shape .label,#mermaidSvgId .icon-shape .label{text-anchor:middle;}#mermaidSvgId .node .katex path{fill:#000;stroke:#000;stroke-width:1px;}#mermaidSvgId .rough-node .label,#mermaidSvgId .node .label,#mermaidSvgId .image-shape .label,#mermaidSvgId .icon-shape .label{text-align:center;}#mermaidSvgId .node.clickable{cursor:pointer;}#mermaidSvgId .root .anchor path{fill:#0a0f14!important;stroke-width:0;stroke:#0a0f14;}#mermaidSvgId .arrowheadPath{fill:#0a0f14;}#mermaidSvgId .edgePath .path{stroke:#0a0f14;stroke-width:2.0px;}#mermaidSvgId .flowchart-link{stroke:#0a0f14;fill:none;}#mermaidSvgId .edgeLabel{background-color:#ffffff;text-align:center;}#mermaidSvgId .edgeLabel p{background-color:#ffffff;}#mermaidSvgId .edgeLabel rect{opacity:0.5;background-color:#ffffff;fill:#ffffff;}#mermaidSvgId .labelBkg{background-color:rgba(255, 255, 255, 0.5);}#mermaidSvgId .cluster rect{fill:transparent;stroke:#3578c2;stroke-width:1px;}#mermaidSvgId .cluster text{fill:#1e1e1e;}#mermaidSvgId .cluster span{color:#1e1e1e;}#mermaidSvgId div.mermaidTooltip{position:absolute;text-align:center;max-width:200px;padding:2px;font-family:"trebuchet ms",verdana,arial,sans-serif;font-size:12px;background:#bbd6f2;border:1px solid #90b3d9;border-radius:2px;pointer-events:none;z-index:100;}#mermaidSvgId .flowchartTitleText{text-anchor:middle;font-size:18px;fill:#0a0f14;}#mermaidSvgId rect.text{fill:none;stroke-width:0;}#mermaidSvgId .icon-shape,#mermaidSvgId .image-shape{background-color:#ffffff;text-align:center;}#mermaidSvgId .icon-shape p,#mermaidSvgId .image-shape p{background-color:#ffffff;padding:2px;}#mermaidSvgId .icon-shape rect,#mermaidSvgId .image-shape rect{opacity:0.5;background-color:#ffffff;fill:#ffffff;}#mermaidSvgId :root{--mermaid-font-family:"trebuchet ms",verdana,arial,sans-serif;}</style><g><marker orient="auto" markerHeight="8" markerWidth="8" markerUnits="userSpaceOnUse" refY="5" refX="5" viewBox="0 0 10 10" class="marker flowchart-v2" id="mermaidSvgId_flowchart-v2-pointEnd"><path style="stroke-width: 1; stroke-dasharray: 1, 0;" class="arrowMarkerPath" d="M 0 0 L 10 5 L 0 10 z"></path></marker><marker orient="auto" markerHeight="8" markerWidth="8" markerUnits="userSpaceOnUse" refY="5" refX="4.5" viewBox="0 0 10 10" class="marker flowchart-v2" id="mermaidSvgId_flowchart-v2-pointStart"><path style="stroke-width: 1; stroke-dasharray: 1, 0;" class="arrowMarkerPath" d="M 0 5 L 10 10 L 10 0 z"></path></marker><marker orient="auto" markerHeight="11" markerWidth="11" markerUnits="userSpaceOnUse" refY="5" refX="11" viewBox="0 0 10 10" class="marker flowchart-v2" id="mermaidSvgId_flowchart-v2-circleEnd"><circle style="stroke-width: 1; stroke-dasharray: 1, 0;" class="arrowMarkerPath" r="5" cy="5" cx="5"></circle></marker><marker orient="auto" markerHeight="11" markerWidth="11" markerUnits="userSpaceOnUse" refY="5" refX="-1" viewBox="0 0 10 10" class="marker flowchart-v2" id="mermaidSvgId_flowchart-v2-circleStart"><circle style="stroke-width: 1; stroke-dasharray: 1, 0;" class="arrowMarkerPath" r="5" cy="5" cx="5"></circle></marker><marker orient="auto" markerHeight="11" markerWidth="11" markerUnits="userSpaceOnUse" refY="5.2" refX="12" viewBox="0 0 11 11" class="marker cross flowchart-v2" id="mermaidSvgId_flowchart-v2-crossEnd"><path style="stroke-width: 2; stroke-dasharray: 1, 0;" class="arrowMarkerPath" d="M 1,1 l 9,9 M 10,1 l -9,9"></path></marker><marker orient="auto" markerHeight="11" markerWidth="11" markerUnits="userSpaceOnUse" refY="5.2" refX="-1" viewBox="0 0 11 11" class="marker cross flowchart-v2" id="mermaidSvgId_flowchart-v2-crossStart"><path style="stroke-width: 2; stroke-dasharray: 1, 0;" class="arrowMarkerPath" d="M 1,1 l 9,9 M 10,1 l -9,9"></path></marker><g class="root"><g class="clusters"><g data-look="classic" id="subGraph2" class="cluster"><rect height="247.5" width="500.8143768310547" y="205.5" x="8" style=""></rect><g transform="translate(190.6552505493164, 205.5)" class="cluster-label"><g><rect style="stroke: none" class="background"></rect><text style="" y="-10.1"><tspan dy="1.1em" y="-0.1em" x="0" class="text-outer-tspan"><tspan font-weight="normal" class="text-inner-tspan" font-style="normal">Presentation</tspan><tspan font-weight="normal" class="text-inner-tspan" font-style="normal"> Layer</tspan></tspan></text></g></g></g><g data-look="classic" id="subGraph1" class="cluster"><rect height="98.75" width="986.3396606445312" y="205.5" x="528.8143768310547" style=""></rect><g transform="translate(970.1795310974121, 205.5)" class="cluster-label"><g><rect style="stroke: none" class="background"></rect><text style="" y="-10.1"><tspan dy="1.1em" y="-0.1em" x="0" class="text-outer-tspan"><tspan font-weight="normal" class="text-inner-tspan" font-style="normal">Services</tspan><tspan font-weight="normal" class="text-inner-tspan" font-style="normal"> Layer</tspan></tspan></text></g></g></g><g data-look="classic" id="subGraph0" class="cluster"><rect height="98.75" width="1133.2848205566406" y="354.25" x="836.3202247619629" style=""></rect><g transform="translate(1356.3728141784668, 354.25)" class="cluster-label"><g><rect style="stroke: none" class="background"></rect><text style="" y="-10.1"><tspan dy="1.1em" y="-0.1em" x="0" class="text-outer-tspan"><tspan font-weight="normal" class="text-inner-tspan" font-style="normal">Data</tspan><tspan font-weight="normal" class="text-inner-tspan" font-style="normal"> Sources</tspan></tspan></text></g></g></g></g><g class="edgePaths"><path marker-end="url(#mermaidSvgId_flowchart-v2-pointEnd)" style="" class="edge-thickness-normal edge-pattern-solid edge-thickness-normal edge-pattern-solid flowchart-link" id="L_A_B_0" d="M886.392,56.75L886.392,60.917C886.392,65.083,886.392,73.417,886.392,81.083C886.392,88.75,886.392,95.75,886.392,99.25L886.392,102.75"></path><path marker-end="url(#mermaidSvgId_flowchart-v2-pointEnd)" style="" class="edge-thickness-normal edge-pattern-solid edge-thickness-normal edge-pattern-solid flowchart-link" id="L_B_C_0" d="M906.482,155.5L909.916,159.667C913.351,163.833,920.219,172.167,923.653,180.5C927.088,188.833,927.088,197.167,927.088,204.833C927.088,212.5,927.088,219.5,927.088,223L927.088,226.5"></path><path marker-end="url(#mermaidSvgId_flowchart-v2-pointEnd)" style="" class="edge-thickness-normal edge-pattern-solid edge-thickness-normal edge-pattern-solid flowchart-link" id="L_B_D_0" d="M956.599,143.076L993.239,149.314C1029.879,155.551,1103.16,168.025,1139.801,178.429C1176.441,188.833,1176.441,197.167,1176.441,204.833C1176.441,212.5,1176.441,219.5,1176.441,223L1176.441,226.5"></path><path marker-end="url(#mermaidSvgId_flowchart-v2-pointEnd)" style="" class="edge-thickness-normal edge-pattern-solid edge-thickness-normal edge-pattern-solid flowchart-link" id="L_B_E_0" d="M956.599,137.914L1029.995,145.012C1103.391,152.109,1250.184,166.305,1323.58,177.569C1396.976,188.833,1396.976,197.167,1396.976,204.833C1396.976,212.5,1396.976,219.5,1396.976,223L1396.976,226.5"></path><path marker-end="url(#mermaidSvgId_flowchart-v2-pointEnd)" style="" class="edge-thickness-normal edge-pattern-solid edge-thickness-normal edge-pattern-solid flowchart-link" id="L_B_F_0" d="M816.184,143.975L782.926,150.063C749.668,156.15,683.151,168.325,649.892,178.579C616.634,188.833,616.634,197.167,620.205,205.021C623.777,212.876,630.92,220.251,634.492,223.939L638.063,227.627"></path><path marker-end="url(#mermaidSvgId_flowchart-v2-pointEnd)" style="" class="edge-thickness-normal edge-pattern-solid edge-thickness-normal edge-pattern-solid flowchart-link" id="L_C_G_0" d="M927.088,279.25L927.088,283.417C927.088,287.583,927.088,295.917,927.088,304.25C927.088,312.583,927.088,320.917,927.088,329.25C927.088,337.583,927.088,345.917,929.89,353.722C932.693,361.527,938.299,368.804,941.101,372.443L943.904,376.081"></path><path marker-end="url(#mermaidSvgId_flowchart-v2-pointEnd)" style="" class="edge-thickness-normal edge-pattern-solid edge-thickness-normal edge-pattern-solid flowchart-link" id="L_D_H_0" d="M1176.441,279.25L1176.441,283.417C1176.441,287.583,1176.441,295.917,1180.438,304.25C1184.436,312.583,1192.43,320.917,1196.427,329.25C1200.425,337.583,1200.425,345.917,1208.547,353.963C1216.67,362.009,1232.916,369.767,1241.039,373.647L1249.161,377.526"></path><path marker-end="url(#mermaidSvgId_flowchart-v2-pointEnd)" style="" class="edge-thickness-normal edge-pattern-solid edge-thickness-normal edge-pattern-solid flowchart-link" id="L_E_I_0" d="M1396.976,279.25L1396.976,283.417C1396.976,287.583,1396.976,295.917,1402.523,304.25C1408.07,312.583,1419.164,320.917,1424.711,329.25C1430.258,337.583,1430.258,345.917,1445.659,354.164C1461.06,362.411,1491.861,370.572,1507.262,374.653L1522.663,378.733"></path><path marker-end="url(#mermaidSvgId_flowchart-v2-pointEnd)" style="" class="edge-thickness-normal edge-pattern-solid edge-thickness-normal edge-pattern-solid flowchart-link" id="L_B_J_0" d="M956.599,134.697L1106.62,142.331C1256.642,149.965,1556.686,165.232,1706.708,177.033C1856.73,188.833,1856.73,197.167,1856.73,204.833C1856.73,212.5,1856.73,219.5,1856.73,223L1856.73,226.5"></path><path marker-end="url(#mermaidSvgId_flowchart-v2-pointEnd)" style="" class="edge-thickness-normal edge-pattern-solid edge-thickness-normal edge-pattern-solid flowchart-link" id="L_J_K_0" d="M1856.73,279.25L1856.73,283.417C1856.73,287.583,1856.73,295.917,1856.73,304.25C1856.73,312.583,1856.73,320.917,1856.73,329.25C1856.73,337.583,1856.73,345.917,1856.73,353.583C1856.73,361.25,1856.73,368.25,1856.73,371.75L1856.73,375.25"></path><path marker-end="url(#mermaidSvgId_flowchart-v2-pointEnd)" style="" class="edge-thickness-normal edge-pattern-solid edge-thickness-normal edge-pattern-solid flowchart-link" id="L_F_L_0" d="M664.453,279.25L664.453,283.417C664.453,287.583,664.453,295.917,576.707,304.25C488.961,312.583,313.469,320.917,225.723,329.25C137.977,337.583,137.977,345.917,137.977,353.583C137.977,361.25,137.977,368.25,137.977,371.75L137.977,375.25"></path><path marker-end="url(#mermaidSvgId_flowchart-v2-pointEnd)" style="" class="edge-thickness-normal edge-pattern-solid edge-thickness-normal edge-pattern-solid flowchart-link" id="L_M_N_0" d="M1636.048,155.5L1633.331,159.667C1630.613,163.833,1625.179,172.167,1622.461,180.5C1619.744,188.833,1619.744,197.167,1619.744,204.833C1619.744,212.5,1619.744,219.5,1619.744,223L1619.744,226.5"></path><path marker-end="url(#mermaidSvgId_flowchart-v2-pointEnd)" style="" class="edge-thickness-normal edge-pattern-solid edge-thickness-normal edge-pattern-solid flowchart-link" id="L_N_G_0" d="M1597.335,279.25L1593.504,283.417C1589.674,287.583,1582.012,295.917,1512.527,304.25C1443.042,312.583,1311.734,320.917,1246.079,329.25C1180.425,337.583,1180.425,345.917,1158.702,355.065C1136.978,364.213,1093.532,374.177,1071.809,379.158L1050.086,384.14"></path><path marker-end="url(#mermaidSvgId_flowchart-v2-pointEnd)" style="" class="edge-thickness-normal edge-pattern-solid edge-thickness-normal edge-pattern-solid flowchart-link" id="L_N_H_0" d="M1607.208,279.25L1605.065,283.417C1602.923,287.583,1598.637,295.917,1565.812,304.25C1532.987,312.583,1471.622,320.917,1440.94,329.25C1410.258,337.583,1410.258,345.917,1401.879,353.969C1393.501,362.022,1376.744,369.795,1368.366,373.681L1359.988,377.567"></path><path marker-end="url(#mermaidSvgId_flowchart-v2-pointEnd)" style="" class="edge-thickness-normal edge-pattern-solid edge-thickness-normal edge-pattern-solid flowchart-link" id="L_N_I_0" d="M1678.001,279.25L1687.96,283.417C1697.918,287.583,1717.836,295.917,1727.794,304.25C1737.753,312.583,1737.753,320.917,1737.753,329.25C1737.753,337.583,1737.753,345.917,1728.147,353.998C1718.541,362.08,1699.33,369.91,1689.724,373.825L1680.119,377.74"></path><path marker-end="url(#mermaidSvgId_flowchart-v2-pointEnd)" style="" class="edge-thickness-normal edge-pattern-solid edge-thickness-normal edge-pattern-solid flowchart-link" id="L_B_O_0" d="M816.184,137.934L743.03,145.028C669.876,152.122,523.568,166.311,450.414,177.572C377.26,188.833,377.26,197.167,377.26,204.833C377.26,212.5,377.26,219.5,377.26,223L377.26,226.5"></path><path marker-end="url(#mermaidSvgId_flowchart-v2-pointEnd)" style="" class="edge-thickness-normal edge-pattern-solid edge-thickness-normal edge-pattern-solid flowchart-link" id="L_O_P_0" d="M377.26,279.25L377.26,283.417C377.26,287.583,377.26,295.917,377.26,304.25C377.26,312.583,377.26,320.917,377.26,329.25C377.26,337.583,377.26,345.917,377.26,353.583C377.26,361.25,377.26,368.25,377.26,371.75L377.26,375.25"></path><path marker-end="url(#mermaidSvgId_flowchart-v2-pointEnd)" style="" class="edge-thickness-normal edge-pattern-solid edge-thickness-normal edge-pattern-solid flowchart-link" id="L_Q_R_0" d="M473.781,56.75L473.781,60.917C473.781,65.083,473.781,73.417,473.781,81.083C473.781,88.75,473.781,95.75,473.781,99.25L473.781,102.75"></path><path marker-end="url(#mermaidSvgId_flowchart-v2-pointEnd)" style="" class="edge-thickness-normal edge-pattern-solid edge-thickness-normal edge-pattern-solid flowchart-link" id="L_R_F_0" d="M569.326,153.158L589.087,157.715C608.849,162.272,648.372,171.386,668.133,180.11C687.894,188.833,687.894,197.167,686.202,204.898C684.51,212.629,681.125,219.758,679.433,223.322L677.741,226.887"></path></g><g class="edgeLabels"><g><rect style="stroke: none" class="background"></rect></g><g><rect style="stroke: none" class="background"></rect></g><g><rect style="stroke: none" class="background"></rect></g><g><rect style="stroke: none" class="background"></rect></g><g><rect style="stroke: none" class="background"></rect></g><g><rect style="stroke: none" class="background"></rect></g><g><rect style="stroke: none" class="background"></rect></g><g><rect style="stroke: none" class="background"></rect></g><g><rect style="stroke: none" class="background"></rect></g><g><rect style="stroke: none" class="background"></rect></g><g><rect style="stroke: none" class="background"></rect></g><g><rect style="stroke: none" class="background"></rect></g><g><rect style="stroke: none" class="background"></rect></g><g><rect style="stroke: none" class="background"></rect></g><g><rect style="stroke: none" class="background"></rect></g><g><rect style="stroke: none" class="background"></rect></g><g><rect style="stroke: none" class="background"></rect></g><g><rect style="stroke: none" class="background"></rect></g><g><rect style="stroke: none" class="background"></rect></g><g class="edgeLabel"><g transform="translate(0, 0)" class="label"><text y="-10.1"><tspan dy="1.1em" y="-0.1em" x="0" class="text-outer-tspan"></tspan></text></g></g><g class="edgeLabel"><g transform="translate(0, 0)" class="label"><text y="-10.1"><tspan dy="1.1em" y="-0.1em" x="0" class="text-outer-tspan"></tspan></text></g></g><g class="edgeLabel"><g transform="translate(0, 0)" class="label"><text y="-10.1"><tspan dy="1.1em" y="-0.1em" x="0" class="text-outer-tspan"></tspan></text></g></g><g class="edgeLabel"><g transform="translate(0, 0)" class="label"><text y="-10.1"><tspan dy="1.1em" y="-0.1em" x="0" class="text-outer-tspan"></tspan></text></g></g><g class="edgeLabel"><g transform="translate(0, 0)" class="label"><text y="-10.1"><tspan dy="1.1em" y="-0.1em" x="0" class="text-outer-tspan"></tspan></text></g></g><g class="edgeLabel"><g transform="translate(0, 0)" class="label"><text y="-10.1"><tspan dy="1.1em" y="-0.1em" x="0" class="text-outer-tspan"></tspan></text></g></g><g class="edgeLabel"><g transform="translate(0, 0)" class="label"><text y="-10.1"><tspan dy="1.1em" y="-0.1em" x="0" class="text-outer-tspan"></tspan></text></g></g><g class="edgeLabel"><g transform="translate(0, 0)" class="label"><text y="-10.1"><tspan dy="1.1em" y="-0.1em" x="0" class="text-outer-tspan"></tspan></text></g></g><g class="edgeLabel"><g transform="translate(0, 0)" class="label"><text y="-10.1"><tspan dy="1.1em" y="-0.1em" x="0" class="text-outer-tspan"></tspan></text></g></g><g class="edgeLabel"><g transform="translate(0, 0)" class="label"><text y="-10.1"><tspan dy="1.1em" y="-0.1em" x="0" class="text-outer-tspan"></tspan></text></g></g><g class="edgeLabel"><g transform="translate(0, 0)" class="label"><text y="-10.1"><tspan dy="1.1em" y="-0.1em" x="0" class="text-outer-tspan"></tspan></text></g></g><g class="edgeLabel"><g transform="translate(0, 0)" class="label"><text y="-10.1"><tspan dy="1.1em" y="-0.1em" x="0" class="text-outer-tspan"></tspan></text></g></g><g class="edgeLabel"><g transform="translate(0, 0)" class="label"><text y="-10.1"><tspan dy="1.1em" y="-0.1em" x="0" class="text-outer-tspan"></tspan></text></g></g><g class="edgeLabel"><g transform="translate(0, 0)" class="label"><text y="-10.1"><tspan dy="1.1em" y="-0.1em" x="0" class="text-outer-tspan"></tspan></text></g></g><g class="edgeLabel"><g transform="translate(0, 0)" class="label"><text y="-10.1"><tspan dy="1.1em" y="-0.1em" x="0" class="text-outer-tspan"></tspan></text></g></g><g class="edgeLabel"><g transform="translate(0, 0)" class="label"><text y="-10.1"><tspan dy="1.1em" y="-0.1em" x="0" class="text-outer-tspan"></tspan></text></g></g><g class="edgeLabel"><g transform="translate(0, 0)" class="label"><text y="-10.1"><tspan dy="1.1em" y="-0.1em" x="0" class="text-outer-tspan"></tspan></text></g></g><g class="edgeLabel"><g transform="translate(0, 0)" class="label"><text y="-10.1"><tspan dy="1.1em" y="-0.1em" x="0" class="text-outer-tspan"></tspan></text></g></g><g class="edgeLabel"><g transform="translate(0, 0)" class="label"><text y="-10.1"><tspan dy="1.1em" y="-0.1em" x="0" class="text-outer-tspan"></tspan></text></g></g></g><g class="nodes"><g transform="translate(886.3915023803711, 32.375)" id="flowchart-A-0" class="node default"><rect height="48.75" width="93.07809829711914" y="-24.375" x="-46.53904914855957" style="" class="basic label-container"></rect><g transform="translate(0, -9.375)" style="" class="label"><rect></rect><g><rect style="stroke: none" class="background"></rect><text style="" y="-10.1"><tspan dy="1.1em" y="-0.1em" x="0" class="text-outer-tspan"><tspan font-weight="normal" class="text-inner-tspan" font-style="normal">User</tspan></tspan></text></g></g></g><g transform="translate(886.3915023803711, 131.125)" id="flowchart-B-1" class="node default"><rect height="48.75" width="140.41403198242188" y="-24.375" x="-70.20701599121094" style="" class="basic label-container"></rect><g transform="translate(0, -9.375)" style="" class="label"><rect></rect><g><rect style="stroke: none" class="background"></rect><text style="" y="-10.1"><tspan dy="1.1em" y="-0.1em" x="0" class="text-outer-tspan"><tspan font-weight="normal" class="text-inner-tspan" font-style="normal">Mobile</tspan><tspan font-weight="normal" class="text-inner-tspan" font-style="normal"> App</tspan></tspan></text></g></g></g><g transform="translate(927.0877456665039, 254.875)" id="flowchart-C-3" class="node default"><rect height="48.75" width="223.9921417236328" y="-24.375" x="-111.9960708618164" style="" class="basic label-container"></rect><g transform="translate(0, -9.375)" style="" class="label"><rect></rect><g><rect style="stroke: none" class="background"></rect><text style="" y="-10.1"><tspan dy="1.1em" y="-0.1em" x="0" class="text-outer-tspan"><tspan font-weight="normal" class="text-inner-tspan" font-style="normal">Authentication</tspan><tspan font-weight="normal" class="text-inner-tspan" font-style="normal"> Service</tspan></tspan></text></g></g></g><g transform="translate(1176.4412155151367, 254.875)" id="flowchart-D-5" class="node default"><rect height="48.75" width="174.7147979736328" y="-24.375" x="-87.3573989868164" style="" class="basic label-container"></rect><g transform="translate(0, -9.375)" style="" class="label"><rect></rect><g><rect style="stroke: none" class="background"></rect><text style="" y="-10.1"><tspan dy="1.1em" y="-0.1em" x="0" class="text-outer-tspan"><tspan font-weight="normal" class="text-inner-tspan" font-style="normal">Expense</tspan><tspan font-weight="normal" class="text-inner-tspan" font-style="normal"> Service</tspan></tspan></text></g></g></g><g transform="translate(1396.9763259887695, 254.875)" id="flowchart-E-7" class="node default"><rect height="48.75" width="166.3554229736328" y="-24.375" x="-83.1777114868164" style="" class="basic label-container"></rect><g transform="translate(0, -9.375)" style="" class="label"><rect></rect><g><rect style="stroke: none" class="background"></rect><text style="" y="-10.1"><tspan dy="1.1em" y="-0.1em" x="0" class="text-outer-tspan"><tspan font-weight="normal" class="text-inner-tspan" font-style="normal">Budget</tspan><tspan font-weight="normal" class="text-inner-tspan" font-style="normal"> Service</tspan></tspan></text></g></g></g><g transform="translate(664.4530258178711, 254.875)" id="flowchart-F-9" class="node default"><rect height="48.75" width="201.2772979736328" y="-24.375" x="-100.6386489868164" style="" class="basic label-container"></rect><g transform="translate(0, -9.375)" style="" class="label"><rect></rect><g><rect style="stroke: none" class="background"></rect><text style="" y="-10.1"><tspan dy="1.1em" y="-0.1em" x="0" class="text-outer-tspan"><tspan font-weight="normal" class="text-inner-tspan" font-style="normal">Notification</tspan><tspan font-weight="normal" class="text-inner-tspan" font-style="normal"> Service</tspan></tspan></text></g></g></g><g transform="translate(965.1209297180176, 403.625)" id="flowchart-G-11" class="node default"><rect height="48.75" width="162.1327362060547" y="-24.375" x="-81.06636810302734" style="" class="basic label-container"></rect><g transform="translate(0, -9.375)" style="" class="label"><rect></rect><g><rect style="stroke: none" class="background"></rect><text style="" y="-10.1"><tspan dy="1.1em" y="-0.1em" x="0" class="text-outer-tspan"><tspan font-weight="normal" class="text-inner-tspan" font-style="normal">User</tspan><tspan font-weight="normal" class="text-inner-tspan" font-style="normal"> Database</tspan></tspan></text></g></g></g><g transform="translate(1303.8083457946777, 403.625)" id="flowchart-H-13" class="node default"><rect height="48.75" width="188.5194549560547" y="-24.375" x="-94.25972747802734" style="" class="basic label-container"></rect><g transform="translate(0, -9.375)" style="" class="label"><rect></rect><g><rect style="stroke: none" class="background"></rect><text style="" y="-10.1"><tspan dy="1.1em" y="-0.1em" x="0" class="text-outer-tspan"><tspan font-weight="normal" class="text-inner-tspan" font-style="normal">Expense</tspan><tspan font-weight="normal" class="text-inner-tspan" font-style="normal"> Database</tspan></tspan></text></g></g></g><g transform="translate(1616.6100463867188, 403.625)" id="flowchart-I-15" class="node default"><rect height="48.75" width="180.1600799560547" y="-24.375" x="-90.08003997802734" style="" class="basic label-container"></rect><g transform="translate(0, -9.375)" style="" class="label"><rect></rect><g><rect style="stroke: none" class="background"></rect><text style="" y="-10.1"><tspan dy="1.1em" y="-0.1em" x="0" class="text-outer-tspan"><tspan font-weight="normal" class="text-inner-tspan" font-style="normal">Budget</tspan><tspan font-weight="normal" class="text-inner-tspan" font-style="normal"> Database</tspan></tspan></text></g></g></g><g transform="translate(1856.7300910949707, 254.875)" id="flowchart-J-17" class="node default"><rect height="48.75" width="156.58588409423828" y="-24.375" x="-78.29294204711914" style="" class="basic label-container"></rect><g transform="translate(0, -9.375)" style="" class="label"><rect></rect><g><rect style="stroke: none" class="background"></rect><text style="" y="-10.1"><tspan dy="1.1em" y="-0.1em" x="0" class="text-outer-tspan"><tspan font-weight="normal" class="text-inner-tspan" font-style="normal">Local</tspan><tspan font-weight="normal" class="text-inner-tspan" font-style="normal"> Storage</tspan></tspan></text></g></g></g><g transform="translate(1856.7300910949707, 403.625)" id="flowchart-K-19" class="node default"><rect height="48.75" width="155.74990844726562" y="-24.375" x="-77.87495422363281" style="" class="basic label-container"></rect><g transform="translate(0, -9.375)" style="" class="label"><rect></rect><g><rect style="stroke: none" class="background"></rect><text style="" y="-10.1"><tspan dy="1.1em" y="-0.1em" x="0" class="text-outer-tspan"><tspan font-weight="normal" class="text-inner-tspan" font-style="normal">AsyncStorage</tspan></tspan></text></g></g></g><g transform="translate(137.97653198242188, 403.625)" id="flowchart-L-21" class="node default"><rect height="48.75" width="189.9530487060547" y="-24.375" x="-94.97652435302734" style="" class="basic label-container"></rect><g transform="translate(0, -9.375)" style="" class="label"><rect></rect><g><rect style="stroke: none" class="background"></rect><text style="" y="-10.1"><tspan dy="1.1em" y="-0.1em" x="0" class="text-outer-tspan"><tspan font-weight="normal" class="text-inner-tspan" font-style="normal">Push</tspan><tspan font-weight="normal" class="text-inner-tspan" font-style="normal"> Notifications</tspan></tspan></text></g></g></g><g transform="translate(1651.9450187683105, 131.125)" id="flowchart-M-22" class="node default"><rect height="48.75" width="153.9960708618164" y="-24.375" x="-76.9980354309082" style="" class="basic label-container"></rect><g transform="translate(0, -9.375)" style="" class="label"><rect></rect><g><rect style="stroke: none" class="background"></rect><text style="" y="-10.1"><tspan dy="1.1em" y="-0.1em" x="0" class="text-outer-tspan"><tspan font-weight="normal" class="text-inner-tspan" font-style="normal">External</tspan><tspan font-weight="normal" class="text-inner-tspan" font-style="normal"> APIs</tspan></tspan></text></g></g></g><g transform="translate(1619.7438430786133, 254.875)" id="flowchart-N-23" class="node default"><rect height="48.75" width="139.1796112060547" y="-24.375" x="-69.58980560302734" style="" class="basic label-container"></rect><g transform="translate(0, -9.375)" style="" class="label"><rect></rect><g><rect style="stroke: none" class="background"></rect><text style="" y="-10.1"><tspan dy="1.1em" y="-0.1em" x="0" class="text-outer-tspan"><tspan font-weight="normal" class="text-inner-tspan" font-style="normal">MockAPI.io</tspan></tspan></text></g></g></g><g transform="translate(377.25970458984375, 254.875)" id="flowchart-O-31" class="node default"><rect height="48.75" width="193.1093292236328" y="-24.375" x="-96.5546646118164" style="" class="basic label-container"></rect><g transform="translate(0, -9.375)" style="" class="label"><rect></rect><g><rect style="stroke: none" class="background"></rect><text style="" y="-10.1"><tspan dy="1.1em" y="-0.1em" x="0" class="text-outer-tspan"><tspan font-weight="normal" class="text-inner-tspan" font-style="normal">Chart</tspan><tspan font-weight="normal" class="text-inner-tspan" font-style="normal"> Components</tspan></tspan></text></g></g></g><g transform="translate(377.25970458984375, 403.625)" id="flowchart-P-33" class="node default"><rect height="48.75" width="188.61328125" y="-24.375" x="-94.306640625" style="" class="basic label-container"></rect><g transform="translate(0, -9.375)" style="" class="label"><rect></rect><g><rect style="stroke: none" class="background"></rect><text style="" y="-10.1"><tspan dy="1.1em" y="-0.1em" x="0" class="text-outer-tspan"><tspan font-weight="normal" class="text-inner-tspan" font-style="normal">Data</tspan><tspan font-weight="normal" class="text-inner-tspan" font-style="normal"> Visualization</tspan></tspan></text></g></g></g><g transform="translate(473.78120040893555, 32.375)" id="flowchart-Q-34" class="node default"><rect height="48.75" width="184.97652435302734" y="-24.375" x="-92.48826217651367" style="" class="basic label-container"></rect><g transform="translate(0, -9.375)" style="" class="label"><rect></rect><g><rect style="stroke: none" class="background"></rect><text style="" y="-10.1"><tspan dy="1.1em" y="-0.1em" x="0" class="text-outer-tspan"><tspan font-weight="normal" class="text-inner-tspan" font-style="normal">Background</tspan><tspan font-weight="normal" class="text-inner-tspan" font-style="normal"> Tasks</tspan></tspan></text></g></g></g><g transform="translate(473.78120040893555, 131.125)" id="flowchart-R-35" class="node default"><rect height="48.75" width="191.0897674560547" y="-24.375" x="-95.54488372802734" style="" class="basic label-container"></rect><g transform="translate(0, -9.375)" style="" class="label"><rect></rect><g><rect style="stroke: none" class="background"></rect><text style="" y="-10.1"><tspan dy="1.1em" y="-0.1em" x="0" class="text-outer-tspan"><tspan font-weight="normal" class="text-inner-tspan" font-style="normal">Budget</tspan><tspan font-weight="normal" class="text-inner-tspan" font-style="normal"> Monitoring</tspan></tspan></text></g></g></g></g></g></g></svg>