<svg aria-roledescription="flowchart-v2" role="graphics-document document" viewBox="0.00000762939453125 0 916.7313232421875 1409.01171875" style="max-width: 916.7313232421875px;" class="flowchart" xmlns="http://www.w3.org/2000/svg" width="100%" id="mermaidSvgId"><style>#mermaidSvgId{font-family:"trebuchet ms",verdana,arial,sans-serif;font-size:16px;fill:#0a0f14;}@keyframes edge-animation-frame{from{stroke-dashoffset:0;}}@keyframes dash{to{stroke-dashoffset:0;}}#mermaidSvgId .edge-animation-slow{stroke-dasharray:9,5!important;stroke-dashoffset:900;animation:dash 50s linear infinite;stroke-linecap:round;}#mermaidSvgId .edge-animation-fast{stroke-dasharray:9,5!important;stroke-dashoffset:900;animation:dash 20s linear infinite;stroke-linecap:round;}#mermaidSvgId .error-icon{fill:#ffebee;}#mermaidSvgId .error-text{fill:#c62828;stroke:#c62828;}#mermaidSvgId .edge-thickness-normal{stroke-width:1px;}#mermaidSvgId .edge-thickness-thick{stroke-width:3.5px;}#mermaidSvgId .edge-pattern-solid{stroke-dasharray:0;}#mermaidSvgId .edge-thickness-invisible{stroke-width:0;fill:none;}#mermaidSvgId .edge-pattern-dashed{stroke-dasharray:3;}#mermaidSvgId .edge-pattern-dotted{stroke-dasharray:2;}#mermaidSvgId .marker{fill:#0a0f14;stroke:#0a0f14;}#mermaidSvgId .marker.cross{stroke:#0a0f14;}#mermaidSvgId svg{font-family:"trebuchet ms",verdana,arial,sans-serif;font-size:16px;}#mermaidSvgId p{margin:0;}#mermaidSvgId .label{font-family:"trebuchet ms",verdana,arial,sans-serif;color:#0a0f14;}#mermaidSvgId .cluster-label text{fill:#1e1e1e;}#mermaidSvgId .cluster-label span{color:#1e1e1e;}#mermaidSvgId .cluster-label span p{background-color:transparent;}#mermaidSvgId .label text,#mermaidSvgId span{fill:#0a0f14;color:#0a0f14;}#mermaidSvgId .node rect,#mermaidSvgId .node circle,#mermaidSvgId .node ellipse,#mermaidSvgId .node polygon,#mermaidSvgId .node path{fill:#ffffff;stroke:#1a468b;stroke-width:1px;}#mermaidSvgId .rough-node .label text,#mermaidSvgId .node .label text,#mermaidSvgId .image-shape .label,#mermaidSvgId .icon-shape .label{text-anchor:middle;}#mermaidSvgId .node .katex path{fill:#000;stroke:#000;stroke-width:1px;}#mermaidSvgId .rough-node .label,#mermaidSvgId .node .label,#mermaidSvgId .image-shape .label,#mermaidSvgId .icon-shape .label{text-align:center;}#mermaidSvgId .node.clickable{cursor:pointer;}#mermaidSvgId .root .anchor path{fill:#0a0f14!important;stroke-width:0;stroke:#0a0f14;}#mermaidSvgId .arrowheadPath{fill:#0a0f14;}#mermaidSvgId .edgePath .path{stroke:#0a0f14;stroke-width:2.0px;}#mermaidSvgId .flowchart-link{stroke:#0a0f14;fill:none;}#mermaidSvgId .edgeLabel{background-color:#ffffff;text-align:center;}#mermaidSvgId .edgeLabel p{background-color:#ffffff;}#mermaidSvgId .edgeLabel rect{opacity:0.5;background-color:#ffffff;fill:#ffffff;}#mermaidSvgId .labelBkg{background-color:rgba(255, 255, 255, 0.5);}#mermaidSvgId .cluster rect{fill:transparent;stroke:#3578c2;stroke-width:1px;}#mermaidSvgId .cluster text{fill:#1e1e1e;}#mermaidSvgId .cluster span{color:#1e1e1e;}#mermaidSvgId div.mermaidTooltip{position:absolute;text-align:center;max-width:200px;padding:2px;font-family:"trebuchet ms",verdana,arial,sans-serif;font-size:12px;background:#bbd6f2;border:1px solid #90b3d9;border-radius:2px;pointer-events:none;z-index:100;}#mermaidSvgId .flowchartTitleText{text-anchor:middle;font-size:18px;fill:#0a0f14;}#mermaidSvgId rect.text{fill:none;stroke-width:0;}#mermaidSvgId .icon-shape,#mermaidSvgId .image-shape{background-color:#ffffff;text-align:center;}#mermaidSvgId .icon-shape p,#mermaidSvgId .image-shape p{background-color:#ffffff;padding:2px;}#mermaidSvgId .icon-shape rect,#mermaidSvgId .image-shape rect{opacity:0.5;background-color:#ffffff;fill:#ffffff;}#mermaidSvgId :root{--mermaid-font-family:"trebuchet ms",verdana,arial,sans-serif;}</style><g><marker orient="auto" markerHeight="8" markerWidth="8" markerUnits="userSpaceOnUse" refY="5" refX="5" viewBox="0 0 10 10" class="marker flowchart-v2" id="mermaidSvgId_flowchart-v2-pointEnd"><path style="stroke-width: 1; stroke-dasharray: 1, 0;" class="arrowMarkerPath" d="M 0 0 L 10 5 L 0 10 z"></path></marker><marker orient="auto" markerHeight="8" markerWidth="8" markerUnits="userSpaceOnUse" refY="5" refX="4.5" viewBox="0 0 10 10" class="marker flowchart-v2" id="mermaidSvgId_flowchart-v2-pointStart"><path style="stroke-width: 1; stroke-dasharray: 1, 0;" class="arrowMarkerPath" d="M 0 5 L 10 10 L 10 0 z"></path></marker><marker orient="auto" markerHeight="11" markerWidth="11" markerUnits="userSpaceOnUse" refY="5" refX="11" viewBox="0 0 10 10" class="marker flowchart-v2" id="mermaidSvgId_flowchart-v2-circleEnd"><circle style="stroke-width: 1; stroke-dasharray: 1, 0;" class="arrowMarkerPath" r="5" cy="5" cx="5"></circle></marker><marker orient="auto" markerHeight="11" markerWidth="11" markerUnits="userSpaceOnUse" refY="5" refX="-1" viewBox="0 0 10 10" class="marker flowchart-v2" id="mermaidSvgId_flowchart-v2-circleStart"><circle style="stroke-width: 1; stroke-dasharray: 1, 0;" class="arrowMarkerPath" r="5" cy="5" cx="5"></circle></marker><marker orient="auto" markerHeight="11" markerWidth="11" markerUnits="userSpaceOnUse" refY="5.2" refX="12" viewBox="0 0 11 11" class="marker cross flowchart-v2" id="mermaidSvgId_flowchart-v2-crossEnd"><path style="stroke-width: 2; stroke-dasharray: 1, 0;" class="arrowMarkerPath" d="M 1,1 l 9,9 M 10,1 l -9,9"></path></marker><marker orient="auto" markerHeight="11" markerWidth="11" markerUnits="userSpaceOnUse" refY="5.2" refX="-1" viewBox="0 0 11 11" class="marker cross flowchart-v2" id="mermaidSvgId_flowchart-v2-crossStart"><path style="stroke-width: 2; stroke-dasharray: 1, 0;" class="arrowMarkerPath" d="M 1,1 l 9,9 M 10,1 l -9,9"></path></marker><g class="root"><g class="clusters"></g><g class="edgePaths"><path marker-end="url(#mermaidSvgId_flowchart-v2-pointEnd)" style="" class="edge-thickness-normal edge-pattern-solid edge-thickness-normal edge-pattern-solid flowchart-link" id="L_A_B_0" d="M545.263,56.75L545.263,60.917C545.263,65.083,545.263,73.417,545.263,81.083C545.263,88.75,545.263,95.75,545.263,99.25L545.263,102.75"></path><path marker-end="url(#mermaidSvgId_flowchart-v2-pointEnd)" style="" class="edge-thickness-normal edge-pattern-solid edge-thickness-normal edge-pattern-solid flowchart-link" id="L_B_C_0" d="M545.263,155.5L545.263,159.667C545.263,163.833,545.263,172.167,545.333,179.917C545.403,187.667,545.544,194.834,545.614,198.417L545.684,202.001"></path><path marker-end="url(#mermaidSvgId_flowchart-v2-pointEnd)" style="" class="edge-thickness-normal edge-pattern-solid edge-thickness-normal edge-pattern-solid flowchart-link" id="L_C_D_0" d="M574.436,335.529L580.518,346.287C586.599,357.046,598.761,378.562,604.842,394.716C610.924,410.87,610.924,421.661,610.924,427.057L610.924,432.453"></path><path marker-end="url(#mermaidSvgId_flowchart-v2-pointEnd)" style="" class="edge-thickness-normal edge-pattern-solid edge-thickness-normal edge-pattern-solid flowchart-link" id="L_C_E_0" d="M503.553,321.994L488.485,335.008C473.417,348.022,443.281,374.05,428.213,397.189C413.144,420.328,413.144,440.578,413.144,458.932C413.144,477.286,413.144,493.745,413.144,510.203C413.144,526.661,413.144,543.12,413.144,559.578C413.144,576.036,413.144,592.495,413.144,617.541C413.144,642.588,413.144,676.223,413.144,711.753C413.144,747.284,413.144,784.71,415.691,808.882C418.239,833.053,423.333,843.97,425.88,849.428L428.427,854.887"></path><path marker-end="url(#mermaidSvgId_flowchart-v2-pointEnd)" style="" class="edge-thickness-normal edge-pattern-solid edge-thickness-normal edge-pattern-solid flowchart-link" id="L_D_F_0" d="M570.939,485.203L564.104,489.37C557.269,493.536,543.599,501.87,536.764,509.536C529.93,517.203,529.93,524.203,529.93,527.703L529.93,531.203"></path><path marker-end="url(#mermaidSvgId_flowchart-v2-pointEnd)" style="" class="edge-thickness-normal edge-pattern-solid edge-thickness-normal edge-pattern-solid flowchart-link" id="L_F_G_0" d="M529.93,583.953L529.93,588.12C529.93,592.286,529.93,600.62,530,608.37C530.07,616.12,530.211,623.287,530.281,626.87L530.351,630.454"></path><path marker-end="url(#mermaidSvgId_flowchart-v2-pointEnd)" style="" class="edge-thickness-normal edge-pattern-solid edge-thickness-normal edge-pattern-solid flowchart-link" id="L_G_H_0" d="M530.43,786.262L530.346,792.241C530.263,798.22,530.096,810.178,541.463,821.92C552.83,833.662,575.731,845.188,587.181,850.951L598.631,856.713"></path><path marker-end="url(#mermaidSvgId_flowchart-v2-pointEnd)" style="" class="edge-thickness-normal edge-pattern-solid edge-thickness-normal edge-pattern-solid flowchart-link" id="L_G_E_0" d="M498.319,754.151L489.867,765.482C481.415,776.813,464.51,799.475,455.514,816.205C446.519,832.935,445.432,843.733,444.889,849.132L444.346,854.532"></path><path marker-end="url(#mermaidSvgId_flowchart-v2-pointEnd)" style="" class="edge-thickness-normal edge-pattern-solid edge-thickness-normal edge-pattern-solid flowchart-link" id="L_H_D_0" d="M652.445,858.512L652.895,852.449C653.345,846.387,654.244,834.262,654.694,809.486C655.144,784.71,655.144,747.284,655.144,711.753C655.144,676.223,655.144,642.588,655.144,617.541C655.144,592.495,655.144,576.036,655.144,559.578C655.144,543.12,655.144,526.661,651.857,514.762C648.57,502.863,641.997,495.523,638.71,491.853L635.423,488.183"></path><path marker-end="url(#mermaidSvgId_flowchart-v2-pointEnd)" style="" class="edge-thickness-normal edge-pattern-solid edge-thickness-normal edge-pattern-solid flowchart-link" id="L_E_I_0" d="M441.493,907.262L441.493,911.428C441.493,915.595,441.493,923.928,441.493,931.595C441.493,939.262,441.493,946.262,441.493,949.762L441.493,953.262"></path><path marker-end="url(#mermaidSvgId_flowchart-v2-pointEnd)" style="" class="edge-thickness-normal edge-pattern-solid edge-thickness-normal edge-pattern-solid flowchart-link" id="L_I_J_0" d="M345.731,995.56L305.093,1001.469C264.455,1007.377,183.179,1019.194,142.54,1028.603C101.902,1038.012,101.902,1045.012,101.902,1048.512L101.902,1052.012"></path><path marker-end="url(#mermaidSvgId_flowchart-v2-pointEnd)" style="" class="edge-thickness-normal edge-pattern-solid edge-thickness-normal edge-pattern-solid flowchart-link" id="L_I_K_0" d="M383.317,1006.012L373.373,1010.178C363.428,1014.345,343.539,1022.678,333.595,1030.345C323.65,1038.012,323.65,1045.012,323.65,1048.512L323.65,1052.012"></path><path marker-end="url(#mermaidSvgId_flowchart-v2-pointEnd)" style="" class="edge-thickness-normal edge-pattern-solid edge-thickness-normal edge-pattern-solid flowchart-link" id="L_I_L_0" d="M499.669,1006.012L509.613,1010.178C519.558,1014.345,539.447,1022.678,549.391,1030.345C559.336,1038.012,559.336,1045.012,559.336,1048.512L559.336,1052.012"></path><path marker-end="url(#mermaidSvgId_flowchart-v2-pointEnd)" style="" class="edge-thickness-normal edge-pattern-solid edge-thickness-normal edge-pattern-solid flowchart-link" id="L_I_M_0" d="M537.255,994.7L581.62,1000.752C625.986,1006.804,714.718,1018.908,759.083,1028.46C803.449,1038.012,803.449,1045.012,803.449,1048.512L803.449,1052.012"></path><path marker-end="url(#mermaidSvgId_flowchart-v2-pointEnd)" style="" class="edge-thickness-normal edge-pattern-solid edge-thickness-normal edge-pattern-solid flowchart-link" id="L_J_N_0" d="M101.902,1104.762L101.902,1108.928C101.902,1113.095,101.902,1121.428,101.902,1129.095C101.902,1136.762,101.902,1143.762,101.902,1147.262L101.902,1150.762"></path><path marker-end="url(#mermaidSvgId_flowchart-v2-pointEnd)" style="" class="edge-thickness-normal edge-pattern-solid edge-thickness-normal edge-pattern-solid flowchart-link" id="L_N_O_0" d="M101.902,1203.512L101.902,1207.678C101.902,1211.845,101.902,1220.178,101.902,1227.845C101.902,1235.512,101.902,1242.512,101.902,1246.012L101.902,1249.512"></path><path marker-end="url(#mermaidSvgId_flowchart-v2-pointEnd)" style="" class="edge-thickness-normal edge-pattern-solid edge-thickness-normal edge-pattern-solid flowchart-link" id="L_K_P_0" d="M323.65,1104.762L323.65,1108.928C323.65,1113.095,323.65,1121.428,323.65,1129.095C323.65,1136.762,323.65,1143.762,323.65,1147.262L323.65,1150.762"></path><path marker-end="url(#mermaidSvgId_flowchart-v2-pointEnd)" style="" class="edge-thickness-normal edge-pattern-solid edge-thickness-normal edge-pattern-solid flowchart-link" id="L_P_Q_0" d="M323.65,1203.512L323.65,1207.678C323.65,1211.845,323.65,1220.178,323.65,1227.845C323.65,1235.512,323.65,1242.512,323.65,1246.012L323.65,1249.512"></path><path marker-end="url(#mermaidSvgId_flowchart-v2-pointEnd)" style="" class="edge-thickness-normal edge-pattern-solid edge-thickness-normal edge-pattern-solid flowchart-link" id="L_Q_R_0" d="M323.65,1302.262L323.65,1306.428C323.65,1310.595,323.65,1318.928,323.65,1326.595C323.65,1334.262,323.65,1341.262,323.65,1344.762L323.65,1348.262"></path><path marker-end="url(#mermaidSvgId_flowchart-v2-pointEnd)" style="" class="edge-thickness-normal edge-pattern-solid edge-thickness-normal edge-pattern-solid flowchart-link" id="L_L_S_0" d="M559.336,1104.762L559.336,1108.928C559.336,1113.095,559.336,1121.428,559.336,1129.095C559.336,1136.762,559.336,1143.762,559.336,1147.262L559.336,1150.762"></path><path marker-end="url(#mermaidSvgId_flowchart-v2-pointEnd)" style="" class="edge-thickness-normal edge-pattern-solid edge-thickness-normal edge-pattern-solid flowchart-link" id="L_S_T_0" d="M559.336,1203.512L559.336,1207.678C559.336,1211.845,559.336,1220.178,559.336,1227.845C559.336,1235.512,559.336,1242.512,559.336,1246.012L559.336,1249.512"></path><path marker-end="url(#mermaidSvgId_flowchart-v2-pointEnd)" style="" class="edge-thickness-normal edge-pattern-solid edge-thickness-normal edge-pattern-solid flowchart-link" id="L_T_U_0" d="M559.336,1302.262L559.336,1306.428C559.336,1310.595,559.336,1318.928,559.336,1326.595C559.336,1334.262,559.336,1341.262,559.336,1344.762L559.336,1348.262"></path><path marker-end="url(#mermaidSvgId_flowchart-v2-pointEnd)" style="" class="edge-thickness-normal edge-pattern-solid edge-thickness-normal edge-pattern-solid flowchart-link" id="L_M_V_0" d="M803.449,1104.762L803.449,1108.928C803.449,1113.095,803.449,1121.428,803.449,1129.095C803.449,1136.762,803.449,1143.762,803.449,1147.262L803.449,1150.762"></path><path marker-end="url(#mermaidSvgId_flowchart-v2-pointEnd)" style="" class="edge-thickness-normal edge-pattern-solid edge-thickness-normal edge-pattern-solid flowchart-link" id="L_V_W_0" d="M803.449,1203.512L803.449,1207.678C803.449,1211.845,803.449,1220.178,803.449,1227.845C803.449,1235.512,803.449,1242.512,803.449,1246.012L803.449,1249.512"></path><path marker-end="url(#mermaidSvgId_flowchart-v2-pointEnd)" style="" class="edge-thickness-normal edge-pattern-solid edge-thickness-normal edge-pattern-solid flowchart-link" id="L_X_Y_0" d="M805.298,56.75L805.298,60.917C805.298,65.083,805.298,73.417,805.298,81.083C805.298,88.75,805.298,95.75,805.298,99.25L805.298,102.75"></path><path marker-end="url(#mermaidSvgId_flowchart-v2-pointEnd)" style="" class="edge-thickness-normal edge-pattern-solid edge-thickness-normal edge-pattern-solid flowchart-link" id="L_Y_Z_0" d="M805.298,155.5L805.298,159.667C805.298,163.833,805.298,172.167,805.298,188.954C805.298,205.742,805.298,230.984,805.298,243.605L805.298,256.227"></path></g><g class="edgeLabels"><g><rect style="stroke: none" class="background"></rect></g><g><rect style="stroke: none" class="background"></rect></g><g><rect style="stroke: none" class="background"></rect></g><g><rect style="stroke: none" class="background"></rect></g><g><rect style="stroke: none" class="background"></rect></g><g><rect style="stroke: none" class="background"></rect></g><g><rect style="stroke: none" class="background"></rect></g><g><rect style="stroke: none" class="background"></rect></g><g><rect style="stroke: none" class="background"></rect></g><g><rect style="stroke: none" class="background"></rect></g><g><rect style="stroke: none" class="background"></rect></g><g><rect style="stroke: none" class="background"></rect></g><g><rect style="stroke: none" class="background"></rect></g><g><rect style="stroke: none" class="background"></rect></g><g><rect style="stroke: none" class="background"></rect></g><g><rect style="stroke: none" class="background"></rect></g><g><rect style="stroke: none" class="background"></rect></g><g><rect style="stroke: none" class="background"></rect></g><g><rect style="stroke: none" class="background"></rect></g><g><rect style="stroke: none" class="background"></rect></g><g><rect style="stroke: none" class="background"></rect></g><g><rect style="stroke: none" class="background"></rect></g><g class="edgeLabel"><g transform="translate(0, 0)" class="label"><text y="-10.1"><tspan dy="1.1em" y="-0.1em" x="0" class="text-outer-tspan"></tspan></text></g></g><g class="edgeLabel"><g transform="translate(0, 0)" class="label"><text y="-10.1"><tspan dy="1.1em" y="-0.1em" x="0" class="text-outer-tspan"></tspan></text></g></g><g transform="translate(610.9236602783203, 400.0780334472656)" class="edgeLabel"><g transform="translate(-11.480466842651367, -11.375)" class="label"><g><rect height="22.75" width="22.960933685302734" y="-0.9999985694885254" x="-2" style="" class="background"></rect><text style="" y="-10.1"><tspan dy="1.1em" y="-0.1em" x="0" class="text-outer-tspan"><tspan font-weight="normal" class="text-inner-tspan" font-style="normal">No</tspan></tspan></text></g></g></g><g transform="translate(413.1443614959717, 559.5780334472656)" class="edgeLabel"><g transform="translate(-14.460927963256836, -11.375)" class="label"><g><rect height="22.75" width="28.921855926513672" y="-0.9999985694885254" x="-3.25" style="" class="background"></rect><text style="" y="-10.1"><tspan dy="1.1em" y="-0.1em" x="0" class="text-outer-tspan"><tspan font-weight="normal" class="text-inner-tspan" font-style="normal">Yes</tspan></tspan></text></g></g></g><g class="edgeLabel"><g transform="translate(0, 0)" class="label"><text y="-10.1"><tspan dy="1.1em" y="-0.1em" x="0" class="text-outer-tspan"></tspan></text></g></g><g class="edgeLabel"><g transform="translate(0, 0)" class="label"><text y="-10.1"><tspan dy="1.1em" y="-0.1em" x="0" class="text-outer-tspan"></tspan></text></g></g><g transform="translate(529.9295082092285, 822.1365814208984)" class="edgeLabel"><g transform="translate(-11.480466842651367, -11.375)" class="label"><g><rect height="22.75" width="22.960933685302734" y="-0.9999985694885254" x="-2" style="" class="background"></rect><text style="" y="-10.1"><tspan dy="1.1em" y="-0.1em" x="0" class="text-outer-tspan"><tspan font-weight="normal" class="text-inner-tspan" font-style="normal">No</tspan></tspan></text></g></g></g><g transform="translate(447.6052894592285, 822.1365814208984)" class="edgeLabel"><g transform="translate(-14.460927963256836, -11.375)" class="label"><g><rect height="22.75" width="28.921855926513672" y="-0.9999985694885254" x="-3.25" style="" class="background"></rect><text style="" y="-10.1"><tspan dy="1.1em" y="-0.1em" x="0" class="text-outer-tspan"><tspan font-weight="normal" class="text-inner-tspan" font-style="normal">Yes</tspan></tspan></text></g></g></g><g class="edgeLabel"><g transform="translate(0, 0)" class="label"><text y="-10.1"><tspan dy="1.1em" y="-0.1em" x="0" class="text-outer-tspan"></tspan></text></g></g><g class="edgeLabel"><g transform="translate(0, 0)" class="label"><text y="-10.1"><tspan dy="1.1em" y="-0.1em" x="0" class="text-outer-tspan"></tspan></text></g></g><g class="edgeLabel"><g transform="translate(0, 0)" class="label"><text y="-10.1"><tspan dy="1.1em" y="-0.1em" x="0" class="text-outer-tspan"></tspan></text></g></g><g class="edgeLabel"><g transform="translate(0, 0)" class="label"><text y="-10.1"><tspan dy="1.1em" y="-0.1em" x="0" class="text-outer-tspan"></tspan></text></g></g><g class="edgeLabel"><g transform="translate(0, 0)" class="label"><text y="-10.1"><tspan dy="1.1em" y="-0.1em" x="0" class="text-outer-tspan"></tspan></text></g></g><g class="edgeLabel"><g transform="translate(0, 0)" class="label"><text y="-10.1"><tspan dy="1.1em" y="-0.1em" x="0" class="text-outer-tspan"></tspan></text></g></g><g class="edgeLabel"><g transform="translate(0, 0)" class="label"><text y="-10.1"><tspan dy="1.1em" y="-0.1em" x="0" class="text-outer-tspan"></tspan></text></g></g><g class="edgeLabel"><g transform="translate(0, 0)" class="label"><text y="-10.1"><tspan dy="1.1em" y="-0.1em" x="0" class="text-outer-tspan"></tspan></text></g></g><g class="edgeLabel"><g transform="translate(0, 0)" class="label"><text y="-10.1"><tspan dy="1.1em" y="-0.1em" x="0" class="text-outer-tspan"></tspan></text></g></g><g class="edgeLabel"><g transform="translate(0, 0)" class="label"><text y="-10.1"><tspan dy="1.1em" y="-0.1em" x="0" class="text-outer-tspan"></tspan></text></g></g><g class="edgeLabel"><g transform="translate(0, 0)" class="label"><text y="-10.1"><tspan dy="1.1em" y="-0.1em" x="0" class="text-outer-tspan"></tspan></text></g></g><g class="edgeLabel"><g transform="translate(0, 0)" class="label"><text y="-10.1"><tspan dy="1.1em" y="-0.1em" x="0" class="text-outer-tspan"></tspan></text></g></g><g class="edgeLabel"><g transform="translate(0, 0)" class="label"><text y="-10.1"><tspan dy="1.1em" y="-0.1em" x="0" class="text-outer-tspan"></tspan></text></g></g><g class="edgeLabel"><g transform="translate(0, 0)" class="label"><text y="-10.1"><tspan dy="1.1em" y="-0.1em" x="0" class="text-outer-tspan"></tspan></text></g></g><g class="edgeLabel"><g transform="translate(0, 0)" class="label"><text y="-10.1"><tspan dy="1.1em" y="-0.1em" x="0" class="text-outer-tspan"></tspan></text></g></g><g class="edgeLabel"><g transform="translate(0, 0)" class="label"><text y="-10.1"><tspan dy="1.1em" y="-0.1em" x="0" class="text-outer-tspan"></tspan></text></g></g><g class="edgeLabel"><g transform="translate(0, 0)" class="label"><text y="-10.1"><tspan dy="1.1em" y="-0.1em" x="0" class="text-outer-tspan"></tspan></text></g></g><g class="edgeLabel"><g transform="translate(0, 0)" class="label"><text y="-10.1"><tspan dy="1.1em" y="-0.1em" x="0" class="text-outer-tspan"></tspan></text></g></g></g><g class="nodes"><g transform="translate(545.2625350952148, 32.375)" id="flowchart-A-0" class="node default"><rect height="48.75" width="144.00390625" y="-24.375" x="-72.001953125" style="" class="basic label-container"></rect><g transform="translate(0, -9.375)" style="" class="label"><rect></rect><g><rect style="stroke: none" class="background"></rect><text style="" y="-10.1"><tspan dy="1.1em" y="-0.1em" x="0" class="text-outer-tspan"><tspan font-weight="normal" class="text-inner-tspan" font-style="normal">App</tspan><tspan font-weight="normal" class="text-inner-tspan" font-style="normal"> Launch</tspan></tspan></text></g></g></g><g transform="translate(545.2625350952148, 131.125)" id="flowchart-B-1" class="node default"><rect height="48.75" width="213.203125" y="-24.375" x="-106.6015625" style="" class="basic label-container"></rect><g transform="translate(0, -9.375)" style="" class="label"><rect></rect><g><rect style="stroke: none" class="background"></rect><text style="" y="-10.1"><tspan dy="1.1em" y="-0.1em" x="0" class="text-outer-tspan"><tspan font-weight="normal" class="text-inner-tspan" font-style="normal">Check</tspan><tspan font-weight="normal" class="text-inner-tspan" font-style="normal"> Authentication</tspan></tspan></text></g></g></g><g transform="translate(545.2625350952148, 284.6015167236328)" id="flowchart-C-3" class="node default"><polygon transform="translate(-79.10151672363281,79.10151672363281)" class="label-container" points="79.10151672363281,0 158.20303344726562,-79.10151672363281 79.10151672363281,-158.20303344726562 0,-79.10151672363281"></polygon><g transform="translate(0, -9.375)" style="" class="label"><rect></rect><g><rect style="stroke: none" class="background"></rect><text style="" y="-10.1"><tspan dy="1.1em" y="-0.1em" x="0" class="text-outer-tspan"><tspan font-weight="normal" class="text-inner-tspan" font-style="normal">Authenticated?</tspan></tspan></text></g></g></g><g transform="translate(610.9236602783203, 460.8280334472656)" id="flowchart-D-5" class="node default"><rect height="48.75" width="192.64450073242188" y="-24.375" x="-96.32225036621094" style="" class="basic label-container"></rect><g transform="translate(0, -9.375)" style="" class="label"><rect></rect><g><rect style="stroke: none" class="background"></rect><text style="" y="-10.1"><tspan dy="1.1em" y="-0.1em" x="0" class="text-outer-tspan"><tspan font-weight="normal" class="text-inner-tspan" font-style="normal">Show</tspan><tspan font-weight="normal" class="text-inner-tspan" font-style="normal"> Login</tspan><tspan font-weight="normal" class="text-inner-tspan" font-style="normal"> Screen</tspan></tspan></text></g></g></g><g transform="translate(441.49301528930664, 882.8865814208984)" id="flowchart-E-7" class="node default"><rect height="48.75" width="176.23046875" y="-24.375" x="-88.115234375" style="" class="basic label-container"></rect><g transform="translate(0, -9.375)" style="" class="label"><rect></rect><g><rect style="stroke: none" class="background"></rect><text style="" y="-10.1"><tspan dy="1.1em" y="-0.1em" x="0" class="text-outer-tspan"><tspan font-weight="normal" class="text-inner-tspan" font-style="normal">Show</tspan><tspan font-weight="normal" class="text-inner-tspan" font-style="normal"> Dashboard</tspan></tspan></text></g></g></g><g transform="translate(529.9295082092285, 559.5780334472656)" id="flowchart-F-9" class="node default"><rect height="48.75" width="134.6484375" y="-24.375" x="-67.32421875" style="" class="basic label-container"></rect><g transform="translate(0, -9.375)" style="" class="label"><rect></rect><g><rect style="stroke: none" class="background"></rect><text style="" y="-10.1"><tspan dy="1.1em" y="-0.1em" x="0" class="text-outer-tspan"><tspan font-weight="normal" class="text-inner-tspan" font-style="normal">User</tspan><tspan font-weight="normal" class="text-inner-tspan" font-style="normal"> Login</tspan></tspan></text></g></g></g><g transform="translate(529.9295082092285, 709.857307434082)" id="flowchart-G-11" class="node default"><polygon transform="translate(-75.9042739868164,75.9042739868164)" class="label-container" points="75.9042739868164,0 151.8085479736328,-75.9042739868164 75.9042739868164,-151.8085479736328 0,-75.9042739868164"></polygon><g transform="translate(0, -9.375)" style="" class="label"><rect></rect><g><rect style="stroke: none" class="background"></rect><text style="" y="-10.1"><tspan dy="1.1em" y="-0.1em" x="0" class="text-outer-tspan"><tspan font-weight="normal" class="text-inner-tspan" font-style="normal">Login</tspan><tspan font-weight="normal" class="text-inner-tspan" font-style="normal"> Success?</tspan></tspan></text></g></g></g><g transform="translate(650.6355638504028, 882.8865814208984)" id="flowchart-H-13" class="node default"><rect height="48.75" width="138.84761810302734" y="-24.375" x="-69.42380905151367" style="" class="basic label-container"></rect><g transform="translate(0, -9.375)" style="" class="label"><rect></rect><g><rect style="stroke: none" class="background"></rect><text style="" y="-10.1"><tspan dy="1.1em" y="-0.1em" x="0" class="text-outer-tspan"><tspan font-weight="normal" class="text-inner-tspan" font-style="normal">Show</tspan><tspan font-weight="normal" class="text-inner-tspan" font-style="normal"> Error</tspan></tspan></text></g></g></g><g transform="translate(441.49301528930664, 981.6365814208984)" id="flowchart-I-19" class="node default"><rect height="48.75" width="191.52337646484375" y="-24.375" x="-95.76168823242188" style="" class="basic label-container"></rect><g transform="translate(0, -9.375)" style="" class="label"><rect></rect><g><rect style="stroke: none" class="background"></rect><text style="" y="-10.1"><tspan dy="1.1em" y="-0.1em" x="0" class="text-outer-tspan"><tspan font-weight="normal" class="text-inner-tspan" font-style="normal">Dashboard</tspan><tspan font-weight="normal" class="text-inner-tspan" font-style="normal"> Actions</tspan></tspan></text></g></g></g><g transform="translate(101.90229034423828, 1080.3865814208984)" id="flowchart-J-21" class="node default"><rect height="48.75" width="166.05854034423828" y="-24.375" x="-83.02927017211914" style="" class="basic label-container"></rect><g transform="translate(0, -9.375)" style="" class="label"><rect></rect><g><rect style="stroke: none" class="background"></rect><text style="" y="-10.1"><tspan dy="1.1em" y="-0.1em" x="0" class="text-outer-tspan"><tspan font-weight="normal" class="text-inner-tspan" font-style="normal">View</tspan><tspan font-weight="normal" class="text-inner-tspan" font-style="normal"> Expenses</tspan></tspan></text></g></g></g><g transform="translate(323.65026092529297, 1080.3865814208984)" id="flowchart-K-23" class="node default"><rect height="48.75" width="151.5312042236328" y="-24.375" x="-75.7656021118164" style="" class="basic label-container"></rect><g transform="translate(0, -9.375)" style="" class="label"><rect></rect><g><rect style="stroke: none" class="background"></rect><text style="" y="-10.1"><tspan dy="1.1em" y="-0.1em" x="0" class="text-outer-tspan"><tspan font-weight="normal" class="text-inner-tspan" font-style="normal">Add</tspan><tspan font-weight="normal" class="text-inner-tspan" font-style="normal"> Expense</tspan></tspan></text></g></g></g><g transform="translate(559.3357696533203, 1080.3865814208984)" id="flowchart-L-25" class="node default"><rect height="48.75" width="177.05463409423828" y="-24.375" x="-88.52731704711914" style="" class="basic label-container"></rect><g transform="translate(0, -9.375)" style="" class="label"><rect></rect><g><rect style="stroke: none" class="background"></rect><text style="" y="-10.1"><tspan dy="1.1em" y="-0.1em" x="0" class="text-outer-tspan"><tspan font-weight="normal" class="text-inner-tspan" font-style="normal">Manage</tspan><tspan font-weight="normal" class="text-inner-tspan" font-style="normal"> Budgets</tspan></tspan></text></g></g></g><g transform="translate(803.4489898681641, 1080.3865814208984)" id="flowchart-M-27" class="node default"><rect height="48.75" width="165.02727508544922" y="-24.375" x="-82.51363754272461" style="" class="basic label-container"></rect><g transform="translate(0, -9.375)" style="" class="label"><rect></rect><g><rect style="stroke: none" class="background"></rect><text style="" y="-10.1"><tspan dy="1.1em" y="-0.1em" x="0" class="text-outer-tspan"><tspan font-weight="normal" class="text-inner-tspan" font-style="normal">View</tspan><tspan font-weight="normal" class="text-inner-tspan" font-style="normal"> Analytics</tspan></tspan></text></g></g></g><g transform="translate(101.90229034423828, 1179.1365814208984)" id="flowchart-N-29" class="node default"><rect height="48.75" width="149.6445083618164" y="-24.375" x="-74.8222541809082" style="" class="basic label-container"></rect><g transform="translate(0, -9.375)" style="" class="label"><rect></rect><g><rect style="stroke: none" class="background"></rect><text style="" y="-10.1"><tspan dy="1.1em" y="-0.1em" x="0" class="text-outer-tspan"><tspan font-weight="normal" class="text-inner-tspan" font-style="normal">Expense</tspan><tspan font-weight="normal" class="text-inner-tspan" font-style="normal"> List</tspan></tspan></text></g></g></g><g transform="translate(101.90229034423828, 1277.8865814208984)" id="flowchart-O-31" class="node default"><rect height="48.75" width="187.80458068847656" y="-24.375" x="-93.90229034423828" style="" class="basic label-container"></rect><g transform="translate(0, -9.375)" style="" class="label"><rect></rect><g><rect style="stroke: none" class="background"></rect><text style="" y="-10.1"><tspan dy="1.1em" y="-0.1em" x="0" class="text-outer-tspan"><tspan font-weight="normal" class="text-inner-tspan" font-style="normal">View/Edit/Delete</tspan></tspan></text></g></g></g><g transform="translate(323.65026092529297, 1179.1365814208984)" id="flowchart-P-33" class="node default"><rect height="48.75" width="159.9570083618164" y="-24.375" x="-79.9785041809082" style="" class="basic label-container"></rect><g transform="translate(0, -9.375)" style="" class="label"><rect></rect><g><rect style="stroke: none" class="background"></rect><text style="" y="-10.1"><tspan dy="1.1em" y="-0.1em" x="0" class="text-outer-tspan"><tspan font-weight="normal" class="text-inner-tspan" font-style="normal">Expense</tspan><tspan font-weight="normal" class="text-inner-tspan" font-style="normal"> Form</tspan></tspan></text></g></g></g><g transform="translate(323.65026092529297, 1277.8865814208984)" id="flowchart-Q-35" class="node default"><rect height="48.75" width="155.6913604736328" y="-24.375" x="-77.8456802368164" style="" class="basic label-container"></rect><g transform="translate(0, -9.375)" style="" class="label"><rect></rect><g><rect style="stroke: none" class="background"></rect><text style="" y="-10.1"><tspan dy="1.1em" y="-0.1em" x="0" class="text-outer-tspan"><tspan font-weight="normal" class="text-inner-tspan" font-style="normal">Save</tspan><tspan font-weight="normal" class="text-inner-tspan" font-style="normal"> Expense</tspan></tspan></text></g></g></g><g transform="translate(323.65026092529297, 1376.6365814208984)" id="flowchart-R-37" class="node default"><rect height="48.75" width="190.9765625" y="-24.375" x="-95.48828125" style="" class="basic label-container"></rect><g transform="translate(0, -9.375)" style="" class="label"><rect></rect><g><rect style="stroke: none" class="background"></rect><text style="" y="-10.1"><tspan dy="1.1em" y="-0.1em" x="0" class="text-outer-tspan"><tspan font-weight="normal" class="text-inner-tspan" font-style="normal">Update</tspan><tspan font-weight="normal" class="text-inner-tspan" font-style="normal"> Dashboard</tspan></tspan></text></g></g></g><g transform="translate(559.3357696533203, 1179.1365814208984)" id="flowchart-S-39" class="node default"><rect height="48.75" width="206.5585174560547" y="-24.375" x="-103.27925872802734" style="" class="basic label-container"></rect><g transform="translate(0, -9.375)" style="" class="label"><rect></rect><g><rect style="stroke: none" class="background"></rect><text style="" y="-10.1"><tspan dy="1.1em" y="-0.1em" x="0" class="text-outer-tspan"><tspan font-weight="normal" class="text-inner-tspan" font-style="normal">Budget</tspan><tspan font-weight="normal" class="text-inner-tspan" font-style="normal"> Management</tspan></tspan></text></g></g></g><g transform="translate(559.3357696533203, 1277.8865814208984)" id="flowchart-T-41" class="node default"><rect height="48.75" width="200.5741729736328" y="-24.375" x="-100.2870864868164" style="" class="basic label-container"></rect><g transform="translate(0, -9.375)" style="" class="label"><rect></rect><g><rect style="stroke: none" class="background"></rect><text style="" y="-10.1"><tspan dy="1.1em" y="-0.1em" x="0" class="text-outer-tspan"><tspan font-weight="normal" class="text-inner-tspan" font-style="normal">Create/Edit</tspan><tspan font-weight="normal" class="text-inner-tspan" font-style="normal"> Budget</tspan></tspan></text></g></g></g><g transform="translate(559.3357696533203, 1376.6365814208984)" id="flowchart-U-43" class="node default"><rect height="48.75" width="180.3944549560547" y="-24.375" x="-90.19722747802734" style="" class="basic label-container"></rect><g transform="translate(0, -9.375)" style="" class="label"><rect></rect><g><rect style="stroke: none" class="background"></rect><text style="" y="-10.1"><tspan dy="1.1em" y="-0.1em" x="0" class="text-outer-tspan"><tspan font-weight="normal" class="text-inner-tspan" font-style="normal">Monitor</tspan><tspan font-weight="normal" class="text-inner-tspan" font-style="normal"> Progress</tspan></tspan></text></g></g></g><g transform="translate(803.4489898681641, 1179.1365814208984)" id="flowchart-V-45" class="node default"><rect height="48.75" width="181.6679229736328" y="-24.375" x="-90.8339614868164" style="" class="basic label-container"></rect><g transform="translate(0, -9.375)" style="" class="label"><rect></rect><g><rect style="stroke: none" class="background"></rect><text style="" y="-10.1"><tspan dy="1.1em" y="-0.1em" x="0" class="text-outer-tspan"><tspan font-weight="normal" class="text-inner-tspan" font-style="normal">Charts</tspan><tspan font-weight="normal" class="text-inner-tspan" font-style="normal"> &amp;</tspan><tspan font-weight="normal" class="text-inner-tspan" font-style="normal"> Reports</tspan></tspan></text></g></g></g><g transform="translate(803.4489898681641, 1277.8865814208984)" id="flowchart-W-47" class="node default"><rect height="48.75" width="144.79293823242188" y="-24.375" x="-72.39646911621094" style="" class="basic label-container"></rect><g transform="translate(0, -9.375)" style="" class="label"><rect></rect><g><rect style="stroke: none" class="background"></rect><text style="" y="-10.1"><tspan dy="1.1em" y="-0.1em" x="0" class="text-outer-tspan"><tspan font-weight="normal" class="text-inner-tspan" font-style="normal">Export</tspan><tspan font-weight="normal" class="text-inner-tspan" font-style="normal"> Data</tspan></tspan></text></g></g></g><g transform="translate(805.2976760864258, 32.375)" id="flowchart-X-48" class="node default"><rect height="48.75" width="184.97652435302734" y="-24.375" x="-92.48826217651367" style="" class="basic label-container"></rect><g transform="translate(0, -9.375)" style="" class="label"><rect></rect><g><rect style="stroke: none" class="background"></rect><text style="" y="-10.1"><tspan dy="1.1em" y="-0.1em" x="0" class="text-outer-tspan"><tspan font-weight="normal" class="text-inner-tspan" font-style="normal">Background</tspan><tspan font-weight="normal" class="text-inner-tspan" font-style="normal"> Tasks</tspan></tspan></text></g></g></g><g transform="translate(805.2976760864258, 131.125)" id="flowchart-Y-49" class="node default"><rect height="48.75" width="206.86715698242188" y="-24.375" x="-103.43357849121094" style="" class="basic label-container"></rect><g transform="translate(0, -9.375)" style="" class="label"><rect></rect><g><rect style="stroke: none" class="background"></rect><text style="" y="-10.1"><tspan dy="1.1em" y="-0.1em" x="0" class="text-outer-tspan"><tspan font-weight="normal" class="text-inner-tspan" font-style="normal">Check</tspan><tspan font-weight="normal" class="text-inner-tspan" font-style="normal"> Budget</tspan><tspan font-weight="normal" class="text-inner-tspan" font-style="normal"> Limits</tspan></tspan></text></g></g></g><g transform="translate(805.2976760864258, 284.6015167236328)" id="flowchart-Z-51" class="node default"><rect height="48.75" width="191.1444549560547" y="-24.375" x="-95.57222747802734" style="" class="basic label-container"></rect><g transform="translate(0, -9.375)" style="" class="label"><rect></rect><g><rect style="stroke: none" class="background"></rect><text style="" y="-10.1"><tspan dy="1.1em" y="-0.1em" x="0" class="text-outer-tspan"><tspan font-weight="normal" class="text-inner-tspan" font-style="normal">Send</tspan><tspan font-weight="normal" class="text-inner-tspan" font-style="normal"> Notifications</tspan></tspan></text></g></g></g></g></g></g></svg>